<svg width="39" height="38" viewBox="0 0 39 38" fill="none" xmlns="http://www.w3.org/2000/svg">
<path d="M25.7067 5H14.2932C9.98879 5 6.5 8.61566 6.5 13.0765V24.9052C6.5 29.3661 9.98879 32.9817 14.2932 32.9817H25.7067C30.0104 32.9817 33.4999 29.3661 33.4999 24.9052V13.0765C33.4999 8.61566 30.0111 5 25.7067 5ZM31.0135 25.1132C31.0135 28.0742 28.6977 30.4742 25.8406 30.4742H14.16C11.303 30.4742 8.98716 28.0742 8.98716 25.1132V13.0079C8.98716 10.047 11.303 7.64696 14.16 7.64696H25.8406C28.6977 7.64696 31.0135 10.047 31.0135 13.0079V25.1132Z" fill="#E8394B"/>
<path d="M19.9999 11.7999C16.1309 11.7999 12.9944 15.0505 12.9944 19.0602C12.9944 23.0699 16.1309 26.3205 19.9999 26.3205C23.8689 26.3205 27.0054 23.0699 27.0054 19.0602C27.0054 15.0505 23.8689 11.7999 19.9999 11.7999ZM19.9999 23.7665C17.4922 23.7665 15.4587 21.6591 15.4587 19.0602C15.4587 16.4613 17.4922 14.3539 19.9999 14.3539C22.5077 14.3539 24.5411 16.4613 24.5411 19.0602C24.5411 21.6591 22.5077 23.7665 19.9999 23.7665Z" fill="#E8394B"/>
<path d="M27.2394 13.2153C28.1407 13.2153 28.8713 12.4581 28.8713 11.524C28.8713 10.59 28.1407 9.83282 27.2394 9.83282C26.3382 9.83282 25.6075 10.59 25.6075 11.524C25.6075 12.4581 26.3382 13.2153 27.2394 13.2153Z" fill="#E8394B"/>
</svg>
