<svg width="39" height="38" viewBox="0 0 39 38" fill="none" xmlns="http://www.w3.org/2000/svg">
<path d="M8.50391 7.00098H30.2178C32.4232 7.02263 34.1805 8.78646 34.1807 10.9297V22.626C34.1807 24.7838 32.4014 26.5576 30.1768 26.5576H22.1572L21.8633 27.0273L19.3398 31.0596L16.8164 27.0273L16.5225 26.5586H8.50391C6.27848 26.5586 4.5 24.784 4.5 22.627V10.9307C4.50022 8.77403 6.27836 7.00098 8.50391 7.00098Z" stroke="#E8394B" stroke-width="2"/>
<path d="M11.4167 15.8301C11.8591 15.831 12.1529 15.9507 12.3591 16.0986C12.5745 16.2531 12.7364 16.4702 12.8572 16.7178C12.9783 16.9661 13.0473 17.2233 13.0847 17.4248C13.1031 17.5238 13.1136 17.6056 13.1189 17.6592C13.1215 17.6853 13.1221 17.7046 13.1228 17.7158C13.1173 18.6918 12.6792 19.1198 12.2761 19.3457C12.0526 19.4709 11.8213 19.5412 11.6414 19.5791C11.553 19.5977 11.4809 19.6071 11.4343 19.6123C11.4166 19.6143 11.4028 19.6155 11.3933 19.6162C11.3202 19.6153 11.2533 19.6091 11.1921 19.5986C12.1391 19.5157 12.8982 18.7309 12.8982 17.7529C12.8982 16.7405 12.0851 15.9373 11.0935 15.9023C11.1123 15.896 11.1305 15.8891 11.1482 15.8838C11.2446 15.855 11.323 15.8411 11.3718 15.835C11.3933 15.8323 11.4086 15.8306 11.4167 15.8301ZM9.17651 13.7822V17.4775C9.16306 17.5673 9.15308 17.6591 9.15308 17.7529C9.15308 17.8863 9.16834 18.0158 9.19507 18.1406V19.4375H8.92944V13.7822H9.17651Z" fill="#E8394B" stroke="#E8394B" stroke-width="1.5"/>
<path d="M15.1832 13.7519C15.2926 13.7959 15.3842 13.8479 15.4615 13.9032C15.6797 14.0593 15.836 14.276 15.9469 14.5233C16.0587 14.7729 16.1152 15.0331 16.1422 15.2382C16.1554 15.3388 16.1605 15.422 16.1627 15.4765C16.1638 15.5032 16.1646 15.5229 16.1647 15.5341C16.1647 15.5368 16.1647 15.5392 16.1647 15.5409L16.1637 15.5507V19.4384H15.9801V15.953C15.9801 15.0926 15.7428 14.4921 15.3248 14.1278C15.278 14.087 15.2304 14.0504 15.1832 14.0185V13.7519Z" fill="#E8394B" stroke="#E8394B" stroke-width="1.5"/>
<path d="M21.0305 15.8528C21.6815 15.8528 22.1104 15.9934 22.3958 16.1624C22.6805 16.331 22.8654 16.5531 22.9895 16.7835C23.1165 17.0192 23.1796 17.2636 23.2092 17.4544C23.2237 17.5478 23.2294 17.6238 23.2317 17.6731C23.2328 17.6977 23.2326 17.7157 23.2327 17.7249V17.7532C23.2326 18.2537 23.0944 18.5821 22.9221 18.8108C22.7427 19.0491 22.4905 19.225 22.2024 19.3528C21.9137 19.4808 21.6148 19.5485 21.3811 19.5833C21.2662 19.6004 21.1717 19.6095 21.1086 19.6136C21.0774 19.6156 21.054 19.6161 21.0403 19.6165C21.034 19.6167 21.0297 19.6164 21.0276 19.6165C20.3968 19.6161 19.9823 19.4791 19.7073 19.3147C19.4322 19.1503 19.253 18.9327 19.1321 18.7063C19.0085 18.4748 18.9472 18.235 18.9182 18.0471C18.904 17.955 18.898 17.88 18.8958 17.8313C18.8946 17.8071 18.8948 17.7896 18.8948 17.7805V17.7532C18.8948 17.2357 19.0333 16.8957 19.2034 16.6614C19.3792 16.4193 19.6237 16.2427 19.9006 16.1155C20.1788 15.9878 20.4671 15.9206 20.6926 15.886C20.8034 15.8691 20.8947 15.8607 20.9553 15.8567C20.9853 15.8548 21.0077 15.8532 21.0208 15.8528H21.0305ZM21.0315 15.8997C20.0109 15.8997 19.1584 16.7159 19.1584 17.7532C19.1586 18.7896 20.0102 19.6067 21.0315 19.6067C22.054 19.6067 22.9034 18.7875 22.9036 17.7532C22.9036 16.718 22.0533 15.8998 21.0315 15.8997Z" fill="#E8394B" stroke="#E8394B" stroke-width="1.5"/>
<path d="M29.7504 16.0271V20.1228C29.7504 20.6781 29.6208 21.0418 29.4672 21.2849C29.3119 21.5306 29.1028 21.6989 28.8773 21.8162C28.648 21.9355 28.4097 21.998 28.223 22.0291C28.1379 22.0432 28.0674 22.0491 28.0189 22.0525V22.0115C28.3241 21.9679 28.5957 21.8628 28.8256 21.6961C29.1301 21.4751 29.306 21.1875 29.4066 20.9324C29.5058 20.681 29.5391 20.4419 29.5502 20.2752C29.5558 20.1898 29.5565 20.1172 29.5551 20.0633L29.5521 19.9949V18.282C29.6023 18.1147 29.6302 17.9371 29.6302 17.7527C29.6302 17.5678 29.6025 17.39 29.5521 17.2224V16.0271H29.7504ZM27.3051 15.8523L27.3207 15.8533H27.3363C27.4668 15.8533 27.5822 15.8738 27.684 15.9031C26.6961 15.9416 25.8862 16.7415 25.8861 17.7527C25.8861 18.6022 26.4583 19.3046 27.2279 19.5301C26.7822 19.5233 26.4937 19.4082 26.2992 19.2713C26.0925 19.1257 25.9431 18.9232 25.8353 18.6922C25.7265 18.4588 25.6695 18.2151 25.641 18.0232C25.6271 17.9292 25.6205 17.8521 25.6176 17.8015C25.6161 17.7764 25.6158 17.7581 25.6156 17.7478V17.7351C25.6156 17.1676 25.7428 16.8025 25.89 16.5642C26.0376 16.3255 26.2336 16.1684 26.4427 16.0613C26.6568 15.9517 26.8798 15.8971 27.056 15.8719C27.1422 15.8595 27.2128 15.855 27.2582 15.8533L27.3051 15.8523Z" fill="#E8394B" stroke="#E8394B" stroke-width="1.5"/>
</svg>
