<svg width="39" height="38" viewBox="0 0 39 38" fill="none" xmlns="http://www.w3.org/2000/svg">
<path d="M12.6579 18.7775C13.1707 17.7661 13.7203 16.7786 14.3067 15.815C14.8928 14.8514 15.5267 13.9191 16.2083 13.0179L13.3054 12.4313C13.2199 12.4099 13.1371 12.4125 13.0571 12.4392C12.9768 12.4661 12.9047 12.5116 12.8408 12.5754L8.55542 16.85C8.52347 16.8822 8.51278 16.9216 8.52333 16.9679C8.53417 17.0141 8.56083 17.0442 8.60333 17.0584L12.6579 18.7775ZM32.9154 6.07252C30.2324 6.23336 27.8329 6.81613 25.7171 7.82085C23.6015 8.82558 21.574 10.2977 19.6346 12.2371C18.5826 13.2891 17.5983 14.4949 16.6817 15.8546C15.765 17.2143 14.9829 18.6181 14.3354 20.0659L19.4475 25.1804C20.8956 24.5257 22.3021 23.74 23.6671 22.8234C25.0321 21.9067 26.2406 20.9224 27.2925 19.8704C29.2319 17.931 30.704 15.9103 31.7088 13.8084C32.7135 11.7067 33.2963 9.31433 33.4571 6.63127C33.4571 6.55988 33.4471 6.4878 33.4271 6.41502C33.4071 6.34197 33.3701 6.27475 33.3163 6.21336C33.2621 6.15919 33.2013 6.12224 33.1338 6.10252C33.0665 6.08252 32.9938 6.07252 32.9154 6.07252ZM23.5329 16.005C23.0101 15.4895 22.7488 14.8542 22.7488 14.0992C22.7488 13.3442 23.0101 12.7053 23.5329 12.1825C24.0557 11.6597 24.696 11.3984 25.4538 11.3984C26.2118 11.3984 26.8522 11.6597 27.375 12.1825C27.8978 12.7053 28.1592 13.3442 28.1592 14.0992C28.1592 14.8542 27.8978 15.4895 27.375 16.005C26.8522 16.5278 26.2118 16.7892 25.4538 16.7892C24.696 16.7892 24.0557 16.5278 23.5329 16.005ZM20.7358 26.88L22.455 30.9259C22.4692 30.9686 22.4994 30.9927 22.5458 30.9979C22.5922 31.0035 22.6314 30.9902 22.6633 30.9579L26.9379 26.6996C27.0021 26.6354 27.0475 26.5616 27.0742 26.4779C27.1008 26.3941 27.1035 26.3129 27.0821 26.2346L26.5125 23.3213C25.6117 24.0029 24.6783 24.64 23.7125 25.2325C22.7467 25.8253 21.7544 26.3745 20.7358 26.88ZM35.5392 5.34586C35.5728 8.46197 35.0267 11.34 33.9008 13.98C32.7753 16.62 31.0465 19.1095 28.7146 21.4484C28.6499 21.5061 28.586 21.5628 28.5229 21.6184C28.4599 21.6739 28.3958 21.7306 28.3308 21.7884L29.1346 25.8075C29.2235 26.2456 29.204 26.6679 29.0763 27.0746C28.9485 27.4813 28.7303 27.8388 28.4217 28.1471L23.1771 33.4025C22.8488 33.7236 22.4581 33.8411 22.005 33.755C21.5522 33.6689 21.2403 33.4068 21.0692 32.9688L18.6592 27.3534L12.1771 20.8492L6.545 18.4559C6.10694 18.2778 5.85069 17.9595 5.77625 17.5009C5.70181 17.0422 5.82514 16.6522 6.14625 16.3309L11.3738 11.0929C11.6824 10.7843 12.0432 10.566 12.4563 10.4379C12.8693 10.3096 13.2913 10.29 13.7221 10.3792L17.7413 11.1825C17.799 11.1247 17.8558 11.0681 17.9117 11.0125C17.9678 10.957 18.0282 10.9004 18.0929 10.8429C20.4249 8.50377 22.9079 6.76863 25.5421 5.63752C28.1763 4.50669 31.0514 3.96155 34.1675 4.00211C34.3456 4.00072 34.5164 4.03488 34.68 4.1046C34.8433 4.17433 34.9938 4.27794 35.1313 4.41544C35.2688 4.55988 35.3697 4.70655 35.4342 4.85544C35.4986 5.00433 35.5336 5.1678 35.5392 5.34586ZM7.70708 25.7338C8.51903 24.9146 9.50708 24.5035 10.6713 24.5004C11.8354 24.4971 12.8271 24.905 13.6463 25.7242C14.4582 26.5361 14.8599 27.5242 14.8513 28.6884C14.8426 29.8525 14.4324 30.844 13.6204 31.6629C12.5015 32.7749 11.174 33.4578 9.63792 33.7117C8.10153 33.9656 6.55556 34.1854 5 34.3713C5.18583 32.8052 5.40375 31.252 5.65375 29.7117C5.90375 28.1714 6.58819 26.8454 7.70708 25.7338ZM9.17958 27.2413C8.60264 27.841 8.21833 28.5436 8.02667 29.3492C7.835 30.1547 7.67403 30.9777 7.54375 31.8179C8.38431 31.6877 9.20556 31.5238 10.0075 31.3263C10.8094 31.1285 11.5139 30.7411 12.1208 30.1642C12.5594 29.7667 12.7817 29.2772 12.7875 28.6959C12.7931 28.1142 12.5879 27.6097 12.1721 27.1825C11.7446 26.7664 11.2401 26.5625 10.6588 26.5709C10.0771 26.5789 9.58403 26.8024 9.17958 27.2413Z" fill="#E8394B"/>
</svg>
