<svg width="39" height="38" viewBox="0 0 39 38" fill="none" xmlns="http://www.w3.org/2000/svg">
<path d="M4.67822 6.33334H7.14119L8.19674 10.5556M8.19674 10.5556L11.7153 24.6296H30.0116L33.5301 10.5556H8.19674Z" stroke="#E8394B" stroke-width="2" stroke-linecap="round" stroke-linejoin="round"/>
<path d="M11.7152 31.6667C12.8812 31.6667 13.8263 30.7215 13.8263 29.5556C13.8263 28.3896 12.8812 27.4445 11.7152 27.4445C10.5493 27.4445 9.60413 28.3896 9.60413 29.5556C9.60413 30.7215 10.5493 31.6667 11.7152 31.6667Z" fill="#E8394B" stroke="#E8394B" stroke-width="2" stroke-linecap="round" stroke-linejoin="round"/>
<path d="M30.0115 31.6667C31.1774 31.6667 32.1226 30.7215 32.1226 29.5556C32.1226 28.3896 31.1774 27.4445 30.0115 27.4445C28.8456 27.4445 27.9004 28.3896 27.9004 29.5556C27.9004 30.7215 28.8456 31.6667 30.0115 31.6667Z" fill="#E8394B" stroke="#E8394B" stroke-width="2" stroke-linecap="round" stroke-linejoin="round"/>
</svg>
