<svg width="39" height="38" viewBox="0 0 39 38" fill="none" xmlns="http://www.w3.org/2000/svg">
<path d="M29.8333 16.6667C29.8333 23.324 22.448 30.2573 19.968 32.3987C19.737 32.5724 19.4557 32.6663 19.1667 32.6663C18.8776 32.6663 18.5964 32.5724 18.3653 32.3987C15.8853 30.2573 8.5 23.324 8.5 16.6667C8.5 13.8377 9.62381 11.1246 11.6242 9.12419C13.6246 7.12381 16.3377 6 19.1667 6C21.9956 6 24.7088 7.12381 26.7091 9.12419C28.7095 11.1246 29.8333 13.8377 29.8333 16.6667Z" stroke="#E8394B" stroke-width="2" stroke-linecap="round" stroke-linejoin="round"/>
<path d="M19.1666 20.6667C21.3758 20.6667 23.1666 18.8758 23.1666 16.6667C23.1666 14.4575 21.3758 12.6667 19.1666 12.6667C16.9575 12.6667 15.1666 14.4575 15.1666 16.6667C15.1666 18.8758 16.9575 20.6667 19.1666 20.6667Z" stroke="#E8394B" stroke-width="2" stroke-linecap="round" stroke-linejoin="round"/>
</svg>
