<svg width="140" height="78" viewBox="0 0 140 78" fill="none" xmlns="http://www.w3.org/2000/svg">
<path d="M110.064 39.6529C108.324 39.6529 107.445 39.2566 106.592 38.8705C105.766 38.4968 104.984 38.1457 103.384 38.1457C101.785 38.1457 101.005 38.4968 100.177 38.8705C99.3265 39.2541 98.4451 39.6529 96.7053 39.6529C94.9654 39.6529 94.0841 39.2566 93.2332 38.8705C92.4079 38.4968 91.6259 38.1457 90.0261 38.1457C88.4264 38.1457 87.6469 38.4968 86.8215 38.8705C85.9707 39.2541 85.0894 39.6529 83.3495 39.6529C81.6097 39.6529 80.7308 39.2566 79.8775 38.8705C79.0521 38.4968 78.2701 38.1457 76.6704 38.1457C75.0706 38.1457 74.2911 38.4968 73.4632 38.8705C72.6124 39.2541 71.731 39.6529 69.9912 39.6529C68.2513 39.6529 67.37 39.2566 66.5191 38.8705C65.6938 38.4968 64.9118 38.1457 63.312 38.1457C61.7123 38.1457 60.9303 38.4968 60.1049 38.8705C59.2541 39.2541 58.3727 39.6529 56.6329 39.6529C54.893 39.6529 54.0116 39.2566 53.1608 38.8705C52.3355 38.4968 51.5534 38.1457 49.9537 38.1457C48.354 38.1457 47.5719 38.4968 46.7466 38.8705C45.8958 39.2541 45.0144 39.6529 43.2746 39.6529C41.5347 39.6529 40.6533 39.2566 39.8025 38.8705C38.9772 38.4968 38.1951 38.1457 36.5954 38.1457C34.9957 38.1457 34.2136 38.4968 33.3883 38.8705C32.5349 39.2541 31.6561 39.6529 29.9162 39.6529V39.0259C31.516 39.0259 32.298 38.6749 33.1233 38.3012C33.9767 37.9175 34.8555 37.5188 36.5954 37.5188C38.3352 37.5188 39.2166 37.915 40.0674 38.3012C40.8928 38.6749 41.6748 39.0259 43.2746 39.0259C44.8743 39.0259 45.6563 38.6749 46.4817 38.3012C47.3325 37.9175 48.2139 37.5188 49.9537 37.5188C51.6936 37.5188 52.5749 37.915 53.4258 38.3012C54.2511 38.6749 55.0331 39.0259 56.6329 39.0259C58.2326 39.0259 59.0146 38.6749 59.84 38.3012C60.6908 37.9175 61.5722 37.5188 63.312 37.5188C65.0519 37.5188 65.9333 37.915 66.7841 38.3012C67.6094 38.6749 68.3915 39.0259 69.9912 39.0259C71.5909 39.0259 72.3704 38.6749 73.1983 38.3012C74.0491 37.9175 74.9305 37.5188 76.6704 37.5188C78.4102 37.5188 79.289 37.915 80.1424 38.3012C80.9677 38.6749 81.7498 39.0259 83.3495 39.0259C84.9493 39.0259 85.7287 38.6749 86.5541 38.3012C87.4049 37.9175 88.2863 37.5188 90.0261 37.5188C91.766 37.5188 92.6474 37.915 93.4982 38.3012C94.3235 38.6749 95.1055 39.0259 96.7053 39.0259C98.305 39.0259 99.0845 38.6749 99.9124 38.3012C100.763 37.9175 101.645 37.5188 103.384 37.5188C105.124 37.5188 106.006 37.9175 106.856 38.3012C107.682 38.6749 108.464 39.0259 110.064 39.0259V39.6529Z" fill="#E8394B"/>
<path d="M110.064 37.1751C108.324 37.1751 107.445 36.7789 106.592 36.3927C105.766 36.019 104.984 35.6679 103.384 35.6679C101.785 35.6679 101.005 36.019 100.177 36.3927C99.3265 36.7764 98.4451 37.1751 96.7053 37.1751C94.9654 37.1751 94.0841 36.7789 93.2332 36.3927C92.4079 36.019 91.6259 35.6679 90.0261 35.6679C88.4264 35.6679 87.6469 36.019 86.8215 36.3927C85.9707 36.7764 85.0894 37.1751 83.3495 37.1751C81.6097 37.1751 80.7308 36.7789 79.8775 36.3927C79.0521 36.019 78.2701 35.6679 76.6704 35.6679C75.0706 35.6679 74.2911 36.019 73.4632 36.3927C72.6124 36.7764 71.731 37.1751 69.9912 37.1751C68.2513 37.1751 67.37 36.7789 66.5191 36.3927C65.6938 36.019 64.9118 35.6679 63.312 35.6679C61.7123 35.6679 60.9303 36.019 60.1049 36.3927C59.2541 36.7764 58.3727 37.1751 56.6329 37.1751C54.893 37.1751 54.0116 36.7789 53.1608 36.3927C52.3355 36.019 51.5534 35.6679 49.9537 35.6679C48.354 35.6679 47.5719 36.019 46.7466 36.3927C45.8958 36.7764 45.0144 37.1751 43.2746 37.1751C41.5347 37.1751 40.6533 36.7789 39.8025 36.3927C38.9772 36.019 38.1951 35.6679 36.5954 35.6679C34.9957 35.6679 34.2136 36.019 33.3883 36.3927C32.5349 36.7764 31.6561 37.1751 29.9162 37.1751V36.5482C31.516 36.5482 32.298 36.1971 33.1233 35.8234C33.9767 35.4397 34.8555 35.041 36.5954 35.041C38.3352 35.041 39.2166 35.4372 40.0674 35.8234C40.8928 36.1971 41.6748 36.5482 43.2746 36.5482C44.8743 36.5482 45.6563 36.1971 46.4817 35.8234C47.3325 35.4397 48.2139 35.041 49.9537 35.041C51.6936 35.041 52.5749 35.4372 53.4258 35.8234C54.2511 36.1971 55.0331 36.5482 56.6329 36.5482C58.2326 36.5482 59.0146 36.1971 59.84 35.8234C60.6908 35.4397 61.5722 35.041 63.312 35.041C65.0519 35.041 65.9333 35.4372 66.7841 35.8234C67.6094 36.1971 68.3915 36.5482 69.9912 36.5482C71.5909 36.5482 72.3704 36.1971 73.1983 35.8234C74.0491 35.4397 74.9305 35.041 76.6704 35.041C78.4102 35.041 79.289 35.4372 80.1424 35.8234C80.9677 36.1971 81.7498 36.5482 83.3495 36.5482C84.9493 36.5482 85.7287 36.1971 86.5541 35.8234C87.4049 35.4397 88.2863 35.041 90.0261 35.041C91.766 35.041 92.6474 35.4372 93.4982 35.8234C94.3235 36.1971 95.1055 36.5482 96.7053 36.5482C98.305 36.5482 99.0845 36.1971 99.9124 35.8234C100.763 35.4397 101.645 35.041 103.384 35.041C105.124 35.041 106.006 35.4397 106.856 35.8234C107.682 36.1971 108.464 36.5482 110.064 36.5482V37.1751Z" fill="#E8394B"/>
<path d="M110.064 34.7C108.324 34.7 107.445 34.3038 106.591 33.9176C105.766 33.5439 104.984 33.1928 103.384 33.1928C101.785 33.1928 101.005 33.5439 100.177 33.9176C99.3264 34.3013 98.445 34.7 96.7052 34.7C94.9654 34.7 94.084 34.3038 93.2332 33.9176C92.4078 33.5439 91.6258 33.1928 90.026 33.1928C88.4263 33.1928 87.6468 33.5439 86.8215 33.9176C85.9707 34.3013 85.0893 34.7 83.3494 34.7C81.6096 34.7 80.7308 34.3038 79.8774 33.9176C79.0521 33.5439 78.27 33.1928 76.6703 33.1928C75.0705 33.1928 74.291 33.5439 73.4632 33.9176C72.6123 34.3013 71.731 34.7 69.9911 34.7C68.2513 34.7 67.3699 34.3038 66.5191 33.9176C65.6937 33.5439 64.9117 33.1928 63.312 33.1928C61.7122 33.1928 60.9302 33.5439 60.1048 33.9176C59.254 34.3013 58.3726 34.7 56.6328 34.7C54.893 34.7 54.0116 34.3038 53.1608 33.9176C52.3354 33.5439 51.5534 33.1928 49.9536 33.1928C48.3539 33.1928 47.5719 33.5439 46.7465 33.9176C45.8957 34.3013 45.0143 34.7 43.2745 34.7C41.5346 34.7 40.6532 34.3038 39.8024 33.9176C38.9771 33.5439 38.1951 33.1928 36.5953 33.1928C34.9956 33.1928 34.2135 33.5439 33.3882 33.9176C32.5348 34.3013 31.656 34.7 29.9162 34.7V34.0731C31.5159 34.0731 32.2979 33.722 33.1233 33.3483C33.9766 32.9646 34.8555 32.5659 36.5953 32.5659C38.3352 32.5659 39.2165 32.9621 40.0674 33.3483C40.8927 33.722 41.6747 34.0731 43.2745 34.0731C44.8742 34.0731 45.6562 33.722 46.4816 33.3483C47.3324 32.9646 48.2138 32.5659 49.9536 32.5659C51.6935 32.5659 52.5749 32.9621 53.4257 33.3483C54.251 33.722 55.0331 34.0731 56.6328 34.0731C58.2325 34.0731 59.0146 33.722 59.8399 33.3483C60.6907 32.9646 61.5721 32.5659 63.312 32.5659C65.0518 32.5659 65.9332 32.9621 66.784 33.3483C67.6093 33.722 68.3914 34.0731 69.9911 34.0731C71.5909 34.0731 72.3703 33.722 73.1982 33.3483C74.049 32.9646 74.9304 32.5659 76.6703 32.5659C78.4101 32.5659 79.2889 32.9621 80.1423 33.3483C80.9677 33.722 81.7497 34.0731 83.3494 34.0731C84.9492 34.0731 85.7287 33.722 86.554 33.3483C87.4048 32.9646 88.2862 32.5659 90.026 32.5659C91.7659 32.5659 92.6473 32.9621 93.4981 33.3483C94.3234 33.722 95.1055 34.0731 96.7052 34.0731C98.3049 34.0731 99.0844 33.722 99.9123 33.3483C100.763 32.9646 101.645 32.5659 103.384 32.5659C105.124 32.5659 106.006 32.9646 106.856 33.3483C107.682 33.722 108.464 34.0731 110.064 34.0731V34.7Z" fill="#E8394B"/>
<path d="M23.8916 26.8808V29.4863H48.7996V33.0398H50.244V29.4863H69.9911V26.8633H67.3444C65.9102 26.7705 63.2839 26.4244 60.4869 25.1756C54.9897 22.7255 51.4463 18.1289 49.9434 11.5211C49.951 10.9744 49.9485 9.52993 49.9434 8.9682C49.9434 8.62716 49.9408 8.25351 49.9408 7.84224C49.9434 7.61404 49.7549 7.42847 49.5231 7.42847C49.2913 7.42847 49.1028 7.61404 49.1028 7.84224C49.1028 8.25351 49.1028 8.62716 49.1002 8.9682C49.0977 9.55501 49.0951 11.1098 49.1028 11.5888C47.5922 18.1615 44.0539 22.7331 38.5771 25.1756C35.7826 26.4219 33.1589 26.768 31.7222 26.8633H29.641C29.6002 26.8633 29.562 26.8708 29.5238 26.8808H23.8916ZM36.1189 26.8608C36.9875 26.615 37.9122 26.294 38.8599 25.8727C42.6096 24.2101 47.3858 20.6366 49.5307 13.0081C51.6781 20.6366 56.4544 24.2101 60.2016 25.8727C61.1517 26.294 62.0764 26.615 62.9425 26.8608H36.1138H36.1189Z" fill="#E8394B"/>
<path d="M48.8023 32.2322H50.2466V13.0105H48.8023V32.2322Z" fill="#E8394B"/>
<path d="M53.1682 27.4226H54.0114V20.3458H53.1682V27.4226Z" fill="#E8394B"/>
<path d="M56.9358 27.425H57.779V23.7462H56.9358V27.425Z" fill="#E8394B"/>
<path d="M45.8778 20.3481H45.0346V27.4349H45.8778V20.3481Z" fill="#E8394B"/>
<path d="M42.1102 23.7009H41.267V27.4249H42.1102V23.7009Z" fill="#E8394B"/>
<path d="M110.461 26.8808C110.423 26.8708 110.384 26.8633 110.344 26.8633H108.263C106.828 26.7705 104.205 26.4219 101.408 25.1756C95.9308 22.7356 92.3925 18.1615 90.8819 11.5888C90.8896 11.1098 90.887 9.55501 90.8845 8.9682C90.8845 8.62716 90.8819 8.25351 90.8819 7.84224C90.8819 7.43097 90.6934 7.42847 90.4616 7.42847C90.2298 7.42847 90.0413 7.61404 90.0413 7.84224C90.0413 8.25351 90.0413 8.62716 90.0388 8.9682C90.0362 9.52993 90.0337 10.9744 90.0388 11.5211C88.5384 18.1314 84.9925 22.7255 79.4953 25.1756C76.6983 26.4219 74.072 26.768 72.6378 26.8633H69.9911V29.4863H89.7382V33.0398H91.1825V29.4863H116.091V26.8808H110.458H110.461ZM77.0396 26.8608C77.9083 26.615 78.833 26.294 79.7806 25.8727C83.5303 24.2101 88.3066 20.6366 90.4514 13.0081C92.5989 20.6366 97.3752 24.2101 101.122 25.8727C102.072 26.294 102.997 26.615 103.863 26.8608H77.0345H77.0396Z" fill="#E8394B"/>
<path d="M91.1854 13.0081H89.741V32.2297H91.1854V13.0081Z" fill="#E8394B"/>
<path d="M86.8166 20.3481H85.9734V27.4249H86.8166V20.3481Z" fill="#E8394B"/>
<path d="M83.049 23.7437H82.2058V27.4225H83.049V23.7437Z" fill="#E8394B"/>
<path d="M94.107 27.4326H94.9502V20.3458H94.107V27.4326Z" fill="#E8394B"/>
<path d="M97.8746 27.4226H98.7178V23.6986H97.8746V27.4226Z" fill="#E8394B"/>
<path d="M37.1481 55.8877V57.0562H28.8438V62.5707C28.8438 63.0171 28.7342 63.3105 28.5152 63.4459C28.2961 63.5838 28.0388 63.6515 27.7459 63.6515H24.0777V57.0537H15.8395V55.8851H37.1507L37.1481 55.8877ZM35.3242 52.9235C35.3242 53.3699 35.2147 53.6633 34.9956 53.7987C34.7766 53.9366 34.5193 54.0044 34.2263 54.0044H19.1995C18.9065 54.0044 18.6493 53.9366 18.4302 53.7987C18.2111 53.6608 18.1016 53.3699 18.1016 52.9235V46.6517C18.1169 46.2781 18.0685 45.9922 17.9589 45.7966C17.8494 45.601 17.7271 45.3828 17.5972 45.1371C17.3909 44.8061 17.2864 44.5503 17.2788 44.3697C17.2711 44.1892 17.4138 44.0989 17.7067 44.0989H21.7723C22.0653 44.0989 22.3225 44.1666 22.5416 44.3045C22.7607 44.4424 22.8702 44.7333 22.8702 45.1797V48.0134H30.5607V46.6517C30.576 46.2781 30.5276 45.9922 30.418 45.7966C30.3085 45.601 30.1862 45.3828 30.0563 45.1371C29.85 44.8061 29.7455 44.5503 29.7379 44.3697C29.7302 44.1892 29.8729 44.0989 30.1658 44.0989H34.2314C34.5244 44.0989 34.7816 44.1666 35.0007 44.3045C35.2198 44.4424 35.3293 44.7333 35.3293 45.1797V52.9235H35.3242ZM30.5556 52.8383V49.182H22.8651V52.8383H30.5556Z" fill="#E8394B"/>
<path d="M55.6674 51.4088C56.1361 51.7273 56.5794 52.0985 56.9971 52.5223C57.4149 52.9486 57.69 53.4627 57.8199 54.0695C57.8938 54.4457 57.8785 54.8043 57.7766 55.1503C57.6747 55.4964 57.5066 55.7923 57.2723 56.0381C57.0659 56.2537 56.8367 56.4192 56.5794 56.5346C56.3221 56.65 56.0521 56.7177 55.7668 56.7402C55.4815 56.7628 55.1987 56.7302 54.9211 56.6424C54.6434 56.5547 54.3861 56.4192 54.1517 56.2312C53.8588 56.0005 53.6423 55.7121 53.5047 55.366C53.3646 55.0199 53.3111 54.6588 53.3391 54.2852C53.3672 53.9968 53.3544 53.7059 53.2958 53.41C53.2372 53.1141 53.0615 52.8432 52.7685 52.6C52.6514 52.4997 52.5087 52.4044 52.3406 52.3191C52.1725 52.2314 51.984 52.1611 51.7802 52.1035C51.7496 52.1336 51.7318 52.1611 51.7241 52.1912C51.7165 52.2213 51.6986 52.2489 51.6681 52.2765C50.8759 53.3573 49.862 54.3128 48.624 55.1428C47.386 55.9729 45.8601 56.7252 44.0438 57.4023L43.3179 56.8832C44.3725 56.3214 45.3124 55.5491 46.1403 54.5686C46.9682 53.588 47.6382 52.3542 48.1502 50.8697C48.3845 50.1926 48.5832 49.4904 48.7437 48.7607C48.9042 48.0334 49.0214 47.2134 49.0953 46.3056C49.1105 45.932 49.0621 45.6461 48.9526 45.4505C48.8431 45.2549 48.7208 45.0367 48.5909 44.791C48.3845 44.4599 48.2801 44.2042 48.2725 44.0236C48.2648 43.843 48.4075 43.7528 48.7004 43.7528H52.8297C53.1226 43.7528 53.3799 43.8205 53.599 43.9584C53.818 44.0963 53.9276 44.3872 53.9276 44.8336C53.897 46.0022 53.7824 47.0479 53.576 47.9708C53.3697 48.8936 53.0768 49.7512 52.6972 50.5437C53.1659 50.5738 53.6601 50.6515 54.1798 50.7819C54.6994 50.9123 55.1936 51.1204 55.6623 51.4088H55.6674ZM47.386 60.2561C47.4013 59.8824 47.3529 59.5965 47.2433 59.4009C47.1338 59.2053 47.0115 58.9871 46.8816 58.7414C46.6753 58.4104 46.5708 58.1546 46.5632 57.974C46.5555 57.7935 46.6982 57.7032 46.9911 57.7032H51.0567C51.3497 57.7032 51.6069 57.7709 51.826 57.9088C52.0451 58.0468 52.1546 58.3376 52.1546 58.784V62.4829H64.3259V63.6515H48.4864C48.1935 63.6515 47.9362 63.5838 47.7171 63.4459C47.4981 63.3079 47.3885 63.017 47.3885 62.5707V60.2561H47.386ZM59.4248 59.3257V46.09C59.4401 45.7163 59.3917 45.4304 59.2821 45.2348C59.1726 45.0392 59.0529 44.8211 58.9204 44.5753C58.7141 44.2443 58.6096 43.9885 58.602 43.8079C58.5943 43.6274 58.737 43.5371 59.0299 43.5371H63.0955C63.3885 43.5371 63.6457 43.6048 63.8648 43.7427C64.0839 43.8807 64.1934 44.1716 64.1934 44.6179V50.7819H67.049V51.9505H64.1934V58.2449C64.1934 58.6912 64.0839 58.9846 63.8648 59.1201C63.6457 59.258 63.3885 59.3257 63.0955 59.3257H59.4273H59.4248Z" fill="#E8394B"/>
<path d="M81.2631 45.9596C81.2631 47.7902 80.9778 49.4202 80.4072 50.8471C81.0797 51.0051 81.7318 51.2935 82.3636 51.7123C82.7431 52.0157 83.0998 52.3567 83.4284 52.7404C83.757 53.1216 83.9811 53.5655 84.0983 54.0695C84.1722 54.388 84.1544 54.6864 84.0423 54.9673C83.9327 55.2481 83.7977 55.4763 83.6372 55.6494C83.4615 55.8224 83.2628 55.9528 83.0437 56.0381C82.8246 56.1258 82.6005 56.1685 82.3738 56.1685C82.147 56.1685 81.9203 56.1258 81.6936 56.0381C81.4669 55.9528 81.258 55.8224 81.067 55.6494C80.8326 55.4488 80.667 55.1955 80.5728 54.892C80.4785 54.5886 80.4454 54.2927 80.4734 54.0043C80.504 53.7586 80.4913 53.5153 80.4403 53.2696C80.3894 53.0238 80.2391 52.7856 79.9894 52.5549C79.9003 52.4671 79.7907 52.3818 79.6608 52.2941C78.3286 54.4005 76.1608 55.9052 73.1574 56.8155L72.7626 56.166C73.6262 55.677 74.319 55.0927 74.8387 54.4131C75.3584 53.736 75.7532 53.0037 76.0258 52.2188C76.2958 51.4339 76.4766 50.6013 76.5633 49.7211C76.6524 48.8409 76.6957 47.9482 76.6957 47.0404V46.3056C76.6957 45.932 76.6448 45.6461 76.5429 45.4505C76.441 45.2549 76.3238 45.0367 76.1913 44.791C75.985 44.4599 75.8806 44.2042 75.8729 44.0236C75.8653 43.843 76.0079 43.7528 76.3009 43.7528H80.1678C80.4607 43.7528 80.718 43.8205 80.9371 43.9584C81.1561 44.0963 81.2657 44.3872 81.2657 44.8336V45.9596H81.2631ZM76.8689 60.4717C76.8842 60.0981 76.8358 59.8122 76.7263 59.6166C76.6167 59.421 76.497 59.2028 76.3646 58.9571C76.1582 58.626 76.0538 58.3703 76.0461 58.1897C76.0385 58.0091 76.1811 57.9189 76.4741 57.9189H80.5397C80.8326 57.9189 81.0899 57.9866 81.309 58.1245C81.528 58.2624 81.6376 58.5533 81.6376 58.9997V62.4829H94.4686V63.6515H77.9694C77.6764 63.6515 77.4192 63.5838 77.2001 63.4459C76.981 63.3079 76.8715 63.017 76.8715 62.5707V60.4717H76.8689ZM84.9746 56.665V46.09C84.9899 45.7163 84.9415 45.4304 84.832 45.2348C84.7224 45.0392 84.6027 44.8211 84.4702 44.5753C84.2639 44.2443 84.1595 43.9885 84.1518 43.8079C84.1442 43.6274 84.2868 43.5371 84.5798 43.5371H87.8531C88.1461 43.5371 88.4033 43.6048 88.6224 43.7427C88.8415 43.8807 88.951 44.1716 88.951 44.6179V49.2472H90.3342V46.09C90.3495 45.7163 90.319 45.4304 90.2476 45.2348C90.1738 45.0392 90.0719 44.8211 89.9394 44.5753C89.7331 44.2443 89.6286 43.9885 89.621 43.8079C89.6133 43.6274 89.756 43.5371 90.0489 43.5371H93.2357C93.5286 43.5371 93.7859 43.6048 94.005 43.7427C94.2241 43.8807 94.3336 44.1716 94.3336 44.6179V57.5302C94.3336 57.9765 94.2241 58.2699 94.005 58.4054C93.7859 58.5433 93.5286 58.611 93.2357 58.611H90.3368V50.4133H88.9536V55.5817C88.9536 56.028 88.844 56.3214 88.625 56.4569C88.4059 56.5948 88.1486 56.6625 87.8557 56.6625H84.9772L84.9746 56.665Z" fill="#E8394B"/>
<path d="M124.148 60.4942V61.6628H102.837V60.4942H124.148ZM104.88 45.8291C104.88 45.3827 104.989 45.0893 105.208 44.9539C105.427 44.816 105.685 44.7483 105.978 44.7483H122.434V45.9169H109.646V54.3955H122.63V55.5841H105.975C105.682 55.5841 105.425 55.5164 105.206 55.3785C104.987 55.2406 104.877 54.9497 104.877 54.5033V45.8291H104.88Z" fill="#E8394B"/>
<path d="M59.6159 9.6355C59.7891 11.0223 59.7916 12.4115 59.6159 13.7958C59.4401 12.409 59.4427 11.0198 59.6159 9.6355Z" fill="#E8394B"/>
<path d="M61.7301 11.7145C60.3214 11.8851 58.9102 11.8876 57.504 11.7145C58.9127 11.5415 60.3239 11.544 61.7301 11.7145Z" fill="#E8394B"/>
<path d="M59.0987 11.2028C58.793 11.1426 58.5994 10.9546 58.5383 10.6511C58.8465 10.7088 59.0376 10.8994 59.0987 11.2028Z" fill="#E8394B"/>
<path d="M59.0987 12.2261C59.0376 12.527 58.8465 12.7176 58.5383 12.7778C58.5969 12.4743 58.7905 12.2863 59.0987 12.2261Z" fill="#E8394B"/>
<path d="M60.1355 11.2028C60.1966 10.9019 60.3877 10.7113 60.6959 10.6511C60.6373 10.9546 60.4437 11.1426 60.1355 11.2028Z" fill="#E8394B"/>
<path d="M60.1355 12.2261C60.4412 12.2863 60.6348 12.4743 60.6959 12.7778C60.3877 12.7201 60.1966 12.5295 60.1355 12.2261Z" fill="#E8394B"/>
<path d="M37.5837 17.2415C37.7569 18.6282 37.7595 20.0175 37.5837 21.4018C37.408 20.015 37.4105 18.6257 37.5837 17.2415Z" fill="#E8394B"/>
<path d="M39.6979 19.3229C38.2892 19.4935 36.878 19.496 35.4718 19.3229C36.8805 19.1499 38.2918 19.1524 39.6979 19.3229Z" fill="#E8394B"/>
<path d="M37.0666 18.8112C36.7609 18.751 36.5673 18.563 36.5061 18.2595C36.8144 18.3172 37.0054 18.5078 37.0666 18.8112Z" fill="#E8394B"/>
<path d="M37.0666 19.832C37.0054 20.133 36.8144 20.3235 36.5061 20.3837C36.5647 20.0803 36.7583 19.8922 37.0666 19.832Z" fill="#E8394B"/>
<path d="M38.1033 18.8112C38.1645 18.5103 38.3555 18.3197 38.6637 18.2595C38.6052 18.563 38.4116 18.751 38.1033 18.8112Z" fill="#E8394B"/>
<path d="M38.1033 19.832C38.409 19.8922 38.6026 20.0803 38.6637 20.3837C38.3555 20.3261 38.1645 20.1355 38.1033 19.832Z" fill="#E8394B"/>
<path d="M99.5557 13.0081C99.729 14.3948 99.7315 15.7841 99.5557 17.1684C99.38 15.7816 99.3825 14.3923 99.5557 13.0081Z" fill="#E8394B"/>
<path d="M101.667 15.0895C100.259 15.2601 98.8475 15.2626 97.4414 15.0895C98.8501 14.9165 100.261 14.919 101.667 15.0895Z" fill="#E8394B"/>
<path d="M99.0361 14.5778C98.7304 14.5176 98.5368 14.3296 98.4757 14.0261C98.7839 14.0838 98.9749 14.2744 99.0361 14.5778Z" fill="#E8394B"/>
<path d="M99.0361 15.6011C98.9749 15.902 98.7839 16.0926 98.4757 16.1528C98.5343 15.8493 98.7279 15.6613 99.0361 15.6011Z" fill="#E8394B"/>
<path d="M100.073 14.5778C100.134 14.2769 100.325 14.0863 100.633 14.0261C100.575 14.3296 100.381 14.5176 100.073 14.5778Z" fill="#E8394B"/>
<path d="M100.073 15.6011C100.379 15.6613 100.572 15.8493 100.633 16.1528C100.325 16.0951 100.134 15.9045 100.073 15.6011Z" fill="#E8394B"/>
<path d="M77.0399 13.4062C77.2488 15.3522 77.2513 17.3007 77.0399 19.2492C76.8285 17.3032 76.831 15.3547 77.0399 13.4062Z" fill="#E8394B"/>
<path d="M80.0074 16.3278C78.0307 16.5334 76.0514 16.5359 74.0721 16.3278C76.0488 16.1196 78.0281 16.1221 80.0074 16.3278Z" fill="#E8394B"/>
<path d="M76.3111 15.6105C75.9035 15.5002 75.636 15.2394 75.5265 14.8381C75.9341 14.946 76.2015 15.2118 76.3111 15.6105Z" fill="#E8394B"/>
<path d="M76.3111 17.0449C76.199 17.4462 75.9341 17.7095 75.5265 17.8173C75.636 17.4161 75.906 17.1528 76.3111 17.0449Z" fill="#E8394B"/>
<path d="M77.7685 15.6105C77.8805 15.2093 78.1455 14.946 78.553 14.8381C78.4435 15.2394 78.1735 15.5027 77.7685 15.6105Z" fill="#E8394B"/>
<path d="M77.7685 17.0449C78.176 17.1553 78.4435 17.4161 78.553 17.8173C78.1455 17.7095 77.878 17.4436 77.7685 17.0449Z" fill="#E8394B"/>
<path d="M65.0212 20.1076C65.3218 19.9371 65.6326 19.9346 65.9332 20.1076C65.6326 20.2806 65.3218 20.2781 65.0212 20.1076Z" fill="#E8394B"/>
<path d="M64.7437 20.3809C64.9169 20.6768 64.9195 20.9827 64.7437 21.2786C64.5679 20.9827 64.5705 20.6768 64.7437 20.3809Z" fill="#E8394B"/>
<path d="M64.7437 19.8343C64.5705 19.5384 64.5679 19.2324 64.7437 18.9365C64.9195 19.2324 64.9169 19.5384 64.7437 19.8343Z" fill="#E8394B"/>
<path d="M64.4659 20.1076C64.1653 20.2781 63.8546 20.2806 63.554 20.1076C63.8546 19.9346 64.1653 19.9371 64.4659 20.1076Z" fill="#E8394B"/>
<path d="M2.08391 33.3158V64.6723C2.08391 67.1273 4.11415 69.126 6.60801 69.126H133.392C135.886 69.126 137.916 67.1273 137.916 64.6723V33.3158C137.916 30.8607 135.886 28.8621 133.392 28.8621H117.369V29.489H133.392C135.537 29.489 137.28 31.2068 137.28 33.3158V64.6723C137.28 66.7837 135.535 68.499 133.392 68.499H6.60801C4.46314 68.499 2.72075 66.7812 2.72075 64.6723V33.3158C2.72075 31.2043 4.46568 29.489 6.60801 29.489H22.6309V28.8621H6.60801C4.11415 28.8621 2.08391 30.8607 2.08391 33.3158Z" fill="#E8394B"/>
<path d="M133.973 26.8809H117.369V27.5079H133.973C136.946 27.5079 139.363 29.8877 139.363 32.8142V65.0383C139.363 67.9623 136.946 70.3422 133.973 70.3422H6.02449C3.05428 70.3422 0.636838 67.9623 0.636838 65.0383V32.8117C0.636838 29.8852 3.05428 27.5053 6.02449 27.5053H22.6281V26.8784H6.02449C2.70274 26.8784 0 29.5391 0 32.8117V65.0358C0 68.3059 2.70274 70.9666 6.02449 70.9666H133.973C137.295 70.9666 140 68.3059 140 65.0358V32.8117C140 29.5416 137.297 26.8784 133.973 26.8784V26.8809Z" fill="#E8394B"/>
</svg>
