<svg width="150" height="84" viewBox="0 0 150 84" fill="none" xmlns="http://www.w3.org/2000/svg">
<g clip-path="url(#clip0_931_147)">
<path d="M117.925 34.7035C116.061 34.7035 115.12 34.2768 114.205 33.8609C113.321 33.4585 112.483 33.0804 110.769 33.0804C109.055 33.0804 108.22 33.4585 107.333 33.8609C106.421 34.2741 105.477 34.7035 103.613 34.7035C101.749 34.7035 100.804 34.2768 99.8927 33.8609C99.0084 33.4585 98.1705 33.0804 96.4565 33.0804C94.7425 33.0804 93.9074 33.4585 93.0231 33.8609C92.1115 34.2741 91.1672 34.7035 89.303 34.7035C87.4389 34.7035 86.4973 34.2768 85.583 33.8609C84.6987 33.4585 83.8608 33.0804 82.1468 33.0804C80.4328 33.0804 79.5976 33.4585 78.7106 33.8609C77.799 34.2741 76.8547 34.7035 74.9905 34.7035C73.1264 34.7035 72.1821 34.2768 71.2705 33.8609C70.3862 33.4585 69.5483 33.0804 67.8343 33.0804C66.1203 33.0804 65.2824 33.4585 64.3981 33.8609C63.4865 34.2741 62.5422 34.7035 60.6781 34.7035C58.8139 34.7035 57.8696 34.2768 56.958 33.8609C56.0737 33.4585 55.2358 33.0804 53.5218 33.0804C51.8078 33.0804 50.9699 33.4585 50.0856 33.8609C49.174 34.2741 48.2297 34.7035 46.3656 34.7035C44.5015 34.7035 43.5571 34.2768 42.6455 33.8609C41.7612 33.4585 40.9233 33.0804 39.2093 33.0804C37.4953 33.0804 36.6574 33.4585 35.7731 33.8609C34.8588 34.2741 33.9172 34.7035 32.0531 34.7035V34.0283C33.7671 34.0283 34.605 33.6503 35.4893 33.2479C36.4036 32.8347 37.3452 32.4053 39.2093 32.4053C41.0734 32.4053 42.0178 32.832 42.9294 33.2479C43.8137 33.6503 44.6516 34.0283 46.3656 34.0283C48.0796 34.0283 48.9175 33.6503 49.8018 33.2479C50.7134 32.8347 51.6577 32.4053 53.5218 32.4053C55.3859 32.4053 56.3303 32.832 57.2419 33.2479C58.1262 33.6503 58.9641 34.0283 60.6781 34.0283C62.3921 34.0283 63.23 33.6503 64.1143 33.2479C65.0258 32.8347 65.9702 32.4053 67.8343 32.4053C69.6984 32.4053 70.6428 32.832 71.5544 33.2479C72.4386 33.6503 73.2765 34.0283 74.9905 34.0283C76.7046 34.0283 77.5397 33.6503 78.4267 33.2479C79.3383 32.8347 80.2827 32.4053 82.1468 32.4053C84.0109 32.4053 84.9525 32.832 85.8668 33.2479C86.7511 33.6503 87.589 34.0283 89.303 34.0283C91.017 34.0283 91.8522 33.6503 92.7365 33.2479C93.6481 32.8347 94.5924 32.4053 96.4565 32.4053C98.3207 32.4053 99.265 32.832 100.177 33.2479C101.061 33.6503 101.899 34.0283 103.613 34.0283C105.327 34.0283 106.162 33.6503 107.049 33.2479C107.961 32.8347 108.905 32.4053 110.769 32.4053C112.633 32.4053 113.577 32.8347 114.489 33.2479C115.373 33.6503 116.211 34.0283 117.925 34.0283V34.7035Z" fill="#E8394B"/>
<path d="M117.925 32.035C116.061 32.035 115.12 31.6083 114.205 31.1924C113.321 30.7901 112.483 30.412 110.769 30.412C109.055 30.412 108.22 30.7901 107.333 31.1924C106.421 31.6056 105.477 32.035 103.613 32.035C101.749 32.035 100.804 31.6083 99.8927 31.1924C99.0084 30.7901 98.1705 30.412 96.4565 30.412C94.7425 30.412 93.9074 30.7901 93.0231 31.1924C92.1115 31.6056 91.1672 32.035 89.303 32.035C87.4389 32.035 86.4973 31.6083 85.583 31.1924C84.6987 30.7901 83.8608 30.412 82.1468 30.412C80.4328 30.412 79.5976 30.7901 78.7106 31.1924C77.799 31.6056 76.8547 32.035 74.9905 32.035C73.1264 32.035 72.1821 31.6083 71.2705 31.1924C70.3862 30.7901 69.5483 30.412 67.8343 30.412C66.1203 30.412 65.2824 30.7901 64.3981 31.1924C63.4865 31.6056 62.5422 32.035 60.6781 32.035C58.8139 32.035 57.8696 31.6083 56.958 31.1924C56.0737 30.7901 55.2358 30.412 53.5218 30.412C51.8078 30.412 50.9699 30.7901 50.0856 31.1924C49.174 31.6056 48.2297 32.035 46.3656 32.035C44.5015 32.035 43.5571 31.6083 42.6455 31.1924C41.7612 30.7901 40.9233 30.412 39.2093 30.412C37.4953 30.412 36.6574 30.7901 35.7731 31.1924C34.8588 31.6056 33.9172 32.035 32.0531 32.035V31.3599C33.7671 31.3599 34.605 30.9818 35.4893 30.5794C36.4036 30.1662 37.3452 29.7368 39.2093 29.7368C41.0734 29.7368 42.0178 30.1635 42.9294 30.5794C43.8137 30.9818 44.6516 31.3599 46.3656 31.3599C48.0796 31.3599 48.9175 30.9818 49.8018 30.5794C50.7134 30.1662 51.6577 29.7368 53.5218 29.7368C55.3859 29.7368 56.3303 30.1635 57.2419 30.5794C58.1262 30.9818 58.9641 31.3599 60.6781 31.3599C62.3921 31.3599 63.23 30.9818 64.1143 30.5794C65.0258 30.1662 65.9702 29.7368 67.8343 29.7368C69.6984 29.7368 70.6428 30.1635 71.5544 30.5794C72.4386 30.9818 73.2765 31.3599 74.9905 31.3599C76.7046 31.3599 77.5397 30.9818 78.4267 30.5794C79.3383 30.1662 80.2827 29.7368 82.1468 29.7368C84.0109 29.7368 84.9525 30.1635 85.8668 30.5794C86.7511 30.9818 87.589 31.3599 89.303 31.3599C91.017 31.3599 91.8522 30.9818 92.7365 30.5794C93.6481 30.1662 94.5924 29.7368 96.4565 29.7368C98.3207 29.7368 99.265 30.1635 100.177 30.5794C101.061 30.9818 101.899 31.3599 103.613 31.3599C105.327 31.3599 106.162 30.9818 107.049 30.5794C107.961 30.1662 108.905 29.7368 110.769 29.7368C112.633 29.7368 113.577 30.1662 114.489 30.5794C115.373 30.9818 116.211 31.3599 117.925 31.3599V32.035Z" fill="#E8394B"/>
<path d="M117.925 29.3695C116.061 29.3695 115.119 28.9428 114.205 28.5269C113.321 28.1245 112.483 27.7464 110.769 27.7464C109.055 27.7464 108.22 28.1245 107.333 28.5269C106.421 28.9401 105.477 29.3695 103.613 29.3695C101.749 29.3695 100.804 28.9428 99.8927 28.5269C99.0084 28.1245 98.1705 27.7464 96.4565 27.7464C94.7425 27.7464 93.9073 28.1245 93.023 28.5269C92.1114 28.9401 91.1671 29.3695 89.303 29.3695C87.4388 29.3695 86.4972 28.9428 85.5829 28.5269C84.6986 28.1245 83.8607 27.7464 82.1467 27.7464C80.4327 27.7464 79.5975 28.1245 78.7105 28.5269C77.7989 28.9401 76.8546 29.3695 74.9905 29.3695C73.1264 29.3695 72.182 28.9428 71.2704 28.5269C70.3861 28.1245 69.5482 27.7464 67.8342 27.7464C66.1202 27.7464 65.2823 28.1245 64.398 28.5269C63.4864 28.9401 62.5421 29.3695 60.678 29.3695C58.8139 29.3695 57.8695 28.9428 56.9579 28.5269C56.0736 28.1245 55.2357 27.7464 53.5217 27.7464C51.8077 27.7464 50.9698 28.1245 50.0855 28.5269C49.174 28.9401 48.2296 29.3695 46.3655 29.3695C44.5014 29.3695 43.557 28.9428 42.6454 28.5269C41.7612 28.1245 40.9233 27.7464 39.2093 27.7464C37.4952 27.7464 36.6574 28.1245 35.7731 28.5269C34.8587 28.9401 33.9171 29.3695 32.053 29.3695V28.6944C33.767 28.6944 34.6049 28.3163 35.4892 27.9139C36.4035 27.5007 37.3451 27.0713 39.2093 27.0713C41.0734 27.0713 42.0177 27.498 42.9293 27.9139C43.8136 28.3163 44.6515 28.6944 46.3655 28.6944C48.0795 28.6944 48.9174 28.3163 49.8017 27.9139C50.7133 27.5007 51.6576 27.0713 53.5217 27.0713C55.3859 27.0713 56.3302 27.498 57.2418 27.9139C58.1261 28.3163 58.964 28.6944 60.678 28.6944C62.392 28.6944 63.2299 28.3163 64.1142 27.9139C65.0258 27.5007 65.9701 27.0713 67.8342 27.0713C69.6983 27.0713 70.6427 27.498 71.5543 27.9139C72.4386 28.3163 73.2765 28.6944 74.9905 28.6944C76.7045 28.6944 77.5396 28.3163 78.4267 27.9139C79.3383 27.5007 80.2826 27.0713 82.1467 27.0713C84.0108 27.0713 84.9524 27.498 85.8668 27.9139C86.751 28.3163 87.589 28.6944 89.303 28.6944C91.017 28.6944 91.8521 28.3163 92.7364 27.9139C93.648 27.5007 94.5924 27.0713 96.4565 27.0713C98.3206 27.0713 99.2649 27.498 100.177 27.9139C101.061 28.3163 101.899 28.6944 103.613 28.6944C105.327 28.6944 106.162 28.3163 107.049 27.9139C107.96 27.5007 108.905 27.0713 110.769 27.0713C112.633 27.0713 113.577 27.5007 114.489 27.9139C115.373 28.3163 116.211 28.6944 117.925 28.6944V29.3695Z" fill="#E8394B"/>
<path d="M25.5982 20.9487V23.7546H52.2853V27.5814H53.8328V23.7546H74.9904V20.9298H72.1547C70.6181 20.8299 67.8042 20.4572 64.8074 19.1123C58.9175 16.4738 55.1211 11.5235 53.5108 4.40741C53.519 3.81867 53.5162 2.26312 53.5108 1.65818C53.5108 1.29089 53.5081 0.888503 53.5081 0.445602C53.5108 0.199846 53.3088 0 53.0604 0C52.8121 0 52.6101 0.199846 52.6101 0.445602C52.6101 0.888503 52.6101 1.29089 52.6074 1.65818C52.6047 2.29012 52.6019 3.96451 52.6101 4.48032C50.9916 11.5586 47.2006 16.4819 41.3326 19.1123C38.3386 20.4545 35.5274 20.8272 33.988 20.9298H31.7582C31.7145 20.9298 31.6736 20.9379 31.6327 20.9487H25.5982ZM38.6988 20.9271C39.6295 20.6624 40.6203 20.3167 41.6356 19.863C45.6531 18.0725 50.7706 14.2242 53.0686 6.00887C55.3694 14.2242 60.4869 18.0725 64.5017 19.863C65.5197 20.3167 66.5105 20.6624 67.4384 20.9271H38.6934H38.6988Z" fill="#E8394B"/>
<path d="M52.2882 26.7119H53.8357V6.01168H52.2882V26.7119Z" fill="#E8394B"/>
<path d="M56.966 21.5322H57.8694V13.9111H56.966V21.5322Z" fill="#E8394B"/>
<path d="M61.0027 21.5347H61.9061V17.5729H61.0027V21.5347Z" fill="#E8394B"/>
<path d="M49.1548 13.9136H48.2514V21.5455H49.1548V13.9136Z" fill="#E8394B"/>
<path d="M45.118 17.5244H44.2146V21.5348H45.118V17.5244Z" fill="#E8394B"/>
<path d="M118.351 20.9487C118.31 20.9379 118.269 20.9298 118.225 20.9298H115.996C114.459 20.8299 111.648 20.4545 108.651 19.1123C102.783 16.4846 98.992 11.5586 97.3735 4.48032C97.3817 3.96451 97.379 2.29012 97.3763 1.65818C97.3763 1.29089 97.3735 0.888503 97.3735 0.445602C97.3735 0.00270061 97.1716 0 96.9232 0C96.6748 0 96.4729 0.199846 96.4729 0.445602C96.4729 0.888503 96.4728 1.29089 96.4701 1.65818C96.4674 2.26312 96.4647 3.81867 96.4701 4.40741C94.8626 11.5262 91.0634 16.4738 85.1735 19.1123C82.1767 20.4545 79.3628 20.8272 77.8262 20.9298H74.9905V23.7546H96.1481V27.5814H97.6956V23.7546H124.383V20.9487H118.348H118.351ZM82.5425 20.9271C83.4732 20.6624 84.4639 20.3167 85.4792 19.863C89.4967 18.0725 94.6142 14.2242 96.9123 6.00887C99.2131 14.2242 104.331 18.0725 108.345 19.863C109.363 20.3167 110.354 20.6624 111.282 20.9271H82.537H82.5425Z" fill="#E8394B"/>
<path d="M97.6986 6.00879H96.1511V26.709H97.6986V6.00879Z" fill="#E8394B"/>
<path d="M93.0178 13.9136H92.1144V21.5347H93.0178V13.9136Z" fill="#E8394B"/>
<path d="M88.9811 17.5703H88.0777V21.5321H88.9811V17.5703Z" fill="#E8394B"/>
<path d="M100.829 21.543H101.732V13.911H100.829V21.543Z" fill="#E8394B"/>
<path d="M104.866 21.5322H105.769V17.5218H104.866V21.5322Z" fill="#E8394B"/>
<path d="M39.8015 52.1868V53.4453H30.904V59.384C30.904 59.8647 30.7866 60.1806 30.5519 60.3265C30.3172 60.475 30.0415 60.5479 29.7277 60.5479H25.7975V53.4426H16.9709V52.1841H39.8043L39.8015 52.1868ZM37.8474 48.9947C37.8474 49.4754 37.73 49.7914 37.4953 49.9372C37.2606 50.0857 36.9849 50.1587 36.671 50.1587H20.5708C20.257 50.1587 19.9813 50.0857 19.7466 49.9372C19.5119 49.7887 19.3945 49.4754 19.3945 48.9947V42.2404C19.4109 41.838 19.359 41.5302 19.2417 41.3195C19.1243 41.1089 18.9933 40.8739 18.8541 40.6093C18.633 40.2528 18.5211 39.9773 18.5129 39.7829C18.5048 39.5884 18.6576 39.4912 18.9715 39.4912H23.3274C23.6413 39.4912 23.917 39.5641 24.1517 39.7127C24.3864 39.8612 24.5038 40.1745 24.5038 40.6552V43.7069H32.7436V42.2404C32.7599 41.838 32.7081 41.5302 32.5907 41.3195C32.4734 41.1089 32.3423 40.8739 32.2031 40.6093C31.9821 40.2528 31.8702 39.9773 31.862 39.7829C31.8538 39.5884 32.0066 39.4912 32.3205 39.4912H36.6765C36.9904 39.4912 37.266 39.5641 37.5007 39.7127C37.7355 39.8612 37.8528 40.1745 37.8528 40.6552V48.9947H37.8474ZM32.7381 48.9029V44.9654H24.4983V48.9029H32.7381Z" fill="#E8394B"/>
<path d="M59.6436 47.3635C60.1458 47.7064 60.6207 48.1061 61.0683 48.5625C61.5159 49.0216 61.8107 49.5753 61.9499 50.2288C62.0291 50.6339 62.0127 51.0201 61.9035 51.3928C61.7943 51.7655 61.6142 52.0841 61.3631 52.3488C61.142 52.5811 60.8964 52.7593 60.6207 52.8835C60.3451 53.0078 60.0558 53.0807 59.7501 53.105C59.4444 53.1293 59.1414 53.0942 58.844 52.9997C58.5465 52.9051 58.2708 52.7593 58.0197 52.5568C57.7058 52.3083 57.4738 51.9977 57.3265 51.625C57.1763 51.2524 57.119 50.8635 57.1491 50.4611C57.1791 50.1505 57.1654 49.8372 57.1027 49.5186C57.0399 49.1999 56.8516 48.9082 56.5377 48.6463C56.4121 48.5382 56.2593 48.4356 56.0792 48.3438C55.899 48.2493 55.6971 48.1737 55.4787 48.1115C55.446 48.1439 55.4269 48.1737 55.4187 48.2061C55.4105 48.2385 55.3914 48.2682 55.3586 48.2979C54.5098 49.4618 53.4235 50.4908 52.0971 51.3847C50.7707 52.2786 49.1358 53.0888 47.1898 53.8179L46.412 53.2589C47.5419 52.654 48.549 51.8222 49.436 50.7662C50.3231 49.7103 51.0409 48.3816 51.5895 46.7828C51.8405 46.0537 52.0534 45.2975 52.2254 44.5116C52.3973 43.7284 52.5229 42.8453 52.602 41.8677C52.6184 41.4653 52.5665 41.1574 52.4492 40.9468C52.3318 40.7362 52.2008 40.5012 52.0616 40.2365C51.8405 39.8801 51.7286 39.6046 51.7205 39.4101C51.7123 39.2157 51.8651 39.1185 52.179 39.1185H56.6032C56.9171 39.1185 57.1927 39.1914 57.4274 39.3399C57.6622 39.4885 57.7795 39.8017 57.7795 40.2824C57.7468 41.5409 57.624 42.6671 57.4029 43.6609C57.1818 44.6547 56.8679 45.5784 56.4613 46.4318C56.9635 46.4642 57.4929 46.5479 58.0497 46.6883C58.6065 46.8287 59.136 47.0529 59.6382 47.3635H59.6436ZM50.7707 56.8912C50.787 56.4889 50.7352 56.181 50.6178 55.9703C50.5005 55.7597 50.3694 55.5247 50.2303 55.2601C50.0092 54.9036 49.8973 54.6281 49.8891 54.4337C49.8809 54.2392 50.0337 54.142 50.3476 54.142H54.7036C55.0175 54.142 55.2931 54.2149 55.5278 54.3635C55.7626 54.512 55.8799 54.8253 55.8799 55.306V59.2894H68.9206V60.5479H51.9497C51.6358 60.5479 51.3602 60.475 51.1255 60.3264C50.8908 60.1779 50.7734 59.8646 50.7734 59.3839V56.8912H50.7707ZM63.6694 55.8893V41.6355C63.6857 41.2331 63.6339 40.9252 63.5165 40.7145C63.3992 40.5039 63.2709 40.2689 63.129 40.0043C62.9079 39.6478 62.796 39.3723 62.7878 39.1779C62.7796 38.9835 62.9325 38.8862 63.2463 38.8862H67.6023C67.9162 38.8862 68.1918 38.9591 68.4266 39.1077C68.6613 39.2562 68.7786 39.5695 68.7786 40.0502V46.6883H71.8382V47.9468H68.7786V54.7253C68.7786 55.2061 68.6613 55.522 68.4266 55.6679C68.1918 55.8164 67.9162 55.8893 67.6023 55.8893H63.6721H63.6694Z" fill="#E8394B"/>
<path d="M87.0676 41.495C87.0676 43.4665 86.7619 45.2219 86.1505 46.7585C86.8711 46.9287 87.5698 47.2392 88.2466 47.6902C88.6533 48.017 89.0354 48.3843 89.3875 48.7975C89.7396 49.208 89.9797 49.686 90.1053 50.2288C90.1844 50.5718 90.1653 50.8932 90.0452 51.1956C89.9279 51.4981 89.7832 51.7439 89.6113 51.9302C89.423 52.1166 89.2101 52.257 88.9754 52.3488C88.7406 52.4433 88.5004 52.4892 88.2575 52.4892C88.0146 52.4892 87.7717 52.4433 87.5288 52.3488C87.2859 52.257 87.0621 52.1166 86.8574 51.9302C86.6063 51.7142 86.4289 51.4414 86.3279 51.1146C86.2269 50.7879 86.1915 50.4692 86.2215 50.1586C86.2542 49.8939 86.2406 49.632 86.186 49.3673C86.1314 49.1027 85.9704 48.8461 85.7029 48.5976C85.6074 48.5031 85.49 48.4113 85.3508 48.3168C83.9234 50.5853 81.6008 52.2057 78.3829 53.186L77.9599 52.4865C78.8851 51.9599 79.6275 51.3307 80.1843 50.5988C80.741 49.8696 81.1641 49.0811 81.4561 48.2358C81.7454 47.3905 81.9392 46.4939 82.032 45.5459C82.1275 44.598 82.1739 43.6366 82.1739 42.659V41.8677C82.1739 41.4653 82.1193 41.1574 82.0102 40.9468C81.901 40.7362 81.7754 40.5012 81.6335 40.2365C81.4124 39.8801 81.3005 39.6046 81.2924 39.4101C81.2842 39.2157 81.437 39.1185 81.7509 39.1185H85.894C86.2078 39.1185 86.4835 39.1914 86.7182 39.3399C86.9529 39.4885 87.0703 39.8017 87.0703 40.2824V41.495H87.0676ZM82.3595 57.1235C82.3759 56.7211 82.324 56.4132 82.2067 56.2026C82.0893 55.9919 81.961 55.757 81.8191 55.4923C81.598 55.1358 81.4861 54.8604 81.4779 54.6659C81.4698 54.4715 81.6226 54.3743 81.9365 54.3743H86.2924C86.6063 54.3743 86.882 54.4472 87.1167 54.5957C87.3514 54.7443 87.4688 55.0575 87.4688 55.5382V59.2894H101.216V60.5479H83.5386C83.2247 60.5479 82.949 60.475 82.7143 60.3264C82.4796 60.1779 82.3622 59.8646 82.3622 59.3839V57.1235H82.3595ZM91.0442 53.024V41.6355C91.0605 41.2331 91.0087 40.9252 90.8913 40.7145C90.774 40.5039 90.6457 40.2689 90.5038 40.0043C90.2827 39.6478 90.1708 39.3723 90.1626 39.1779C90.1544 38.9835 90.3073 38.8862 90.6211 38.8862H94.1283C94.4422 38.8862 94.7178 38.9591 94.9525 39.1077C95.1873 39.2562 95.3046 39.5695 95.3046 40.0502V45.0355H96.7866V41.6355C96.803 41.2331 96.7703 40.9252 96.6938 40.7145C96.6147 40.5039 96.5055 40.2689 96.3636 40.0043C96.1425 39.6478 96.0306 39.3723 96.0224 39.1779C96.0142 38.9835 96.1671 38.8862 96.4809 38.8862H99.8953C100.209 38.8862 100.485 38.9591 100.72 39.1077C100.954 39.2562 101.072 39.5695 101.072 40.0502V53.9557C101.072 54.4364 100.954 54.7524 100.72 54.8982C100.485 55.0467 100.209 55.1196 99.8953 55.1196H96.7894V46.2913H95.3073V51.8573C95.3073 52.338 95.19 52.654 94.9553 52.7998C94.7205 52.9483 94.4449 53.0213 94.131 53.0213H91.0469L91.0442 53.024Z" fill="#E8394B"/>
<path d="M133.016 57.1476V58.4061H110.182V57.1476H133.016ZM112.371 41.3544C112.371 40.8737 112.489 40.5577 112.723 40.4119C112.958 40.2633 113.234 40.1904 113.547 40.1904H131.179V41.4489H117.478V50.5797H131.389V51.8598H113.545C113.231 51.8598 112.955 51.7869 112.721 51.6383C112.486 51.4898 112.368 51.1765 112.368 50.6958V41.3544H112.371Z" fill="#E8394B"/>
<path d="M23.7068 83.5923C23.6768 83.5923 23.6577 83.5572 23.6522 83.487C23.6467 83.4168 23.6522 83.3358 23.6604 83.2413C23.6713 83.1494 23.6931 83.063 23.7286 82.9874C23.7641 82.9118 23.8078 82.8686 23.8569 82.8578C24.0998 82.8254 24.3045 82.793 24.4737 82.7606C24.6429 82.7282 24.7794 82.6822 24.8913 82.6228C25.0032 82.5634 25.0851 82.4824 25.1342 82.3771C25.1861 82.2744 25.2161 82.134 25.2243 81.9612C25.3253 79.4469 25.3253 76.9893 25.2243 74.5939C25.2052 74.2455 25.0851 74.0079 24.8667 73.8836C24.6484 73.7594 24.2718 73.6946 23.7341 73.6946C23.7041 73.6946 23.685 73.6568 23.6795 73.5812C23.674 73.5055 23.6795 73.4245 23.6877 73.3354C23.6986 73.249 23.7204 73.1653 23.7559 73.0897C23.7914 73.014 23.8351 72.9762 23.8842 72.9762C24.0971 72.9762 24.4328 72.9843 24.8886 73.0005C25.3444 73.0167 25.8411 73.0248 26.3788 73.0248C26.8046 73.0248 27.2658 72.9978 27.7625 72.9438C28.2593 72.8898 28.7506 72.8628 29.2391 72.8628C29.6649 72.8628 30.077 72.9087 30.47 73.0005C30.8658 73.0923 31.2178 73.2409 31.5263 73.4407C31.8347 73.6433 32.0803 73.9025 32.2632 74.2239C32.446 74.5453 32.5361 74.9342 32.5361 75.3906C32.5361 75.739 32.4761 76.0657 32.3532 76.3709C32.2304 76.6761 32.0612 76.9515 31.8429 77.1946C31.6245 77.4403 31.368 77.6456 31.0759 77.8157C30.7812 77.9859 30.4618 78.0966 30.1179 78.1506V78.1992C30.4918 78.1668 30.8576 78.1911 31.2124 78.2721C31.5672 78.3531 31.8783 78.4909 32.1485 78.6799C32.416 78.8717 32.6289 79.112 32.7872 79.4064C32.9455 79.7008 33.0137 80.0491 32.9919 80.4515C32.9619 80.9079 32.8309 81.3319 32.6043 81.7181C32.3778 82.1043 32.0858 82.4392 31.731 82.7227C31.3761 83.0063 30.9804 83.2305 30.5437 83.4006C30.107 83.5707 29.6703 83.6707 29.2364 83.7031C28.9716 83.7247 28.7178 83.7274 28.4749 83.7112C28.232 83.695 27.9945 83.6788 27.768 83.6626C27.5387 83.6464 27.3122 83.6275 27.0829 83.6058C26.8537 83.5842 26.619 83.5734 26.3761 83.5734H25.5709C25.298 83.5734 25.0387 83.5734 24.7958 83.5815C24.5529 83.5869 24.3345 83.5896 24.1408 83.5896H23.6986L23.7068 83.5923ZM27.2194 81.2239C27.2604 81.737 27.4405 82.0827 27.7598 82.2609C28.0791 82.4419 28.5076 82.531 29.0453 82.531C29.2582 82.531 29.4684 82.504 29.6758 82.45C29.8832 82.396 30.0743 82.315 30.2462 82.2042C30.4182 82.0962 30.5655 81.9558 30.6884 81.7883C30.8112 81.6209 30.8958 81.4211 30.9476 81.1915C30.9995 80.9295 30.9995 80.6676 30.9558 80.4083C30.9122 80.1491 30.8057 79.9033 30.6447 79.6737C30.4809 79.4442 30.2571 79.2417 29.9678 79.0607C29.6785 78.8825 29.321 78.7474 28.8952 78.661C28.6823 78.6178 28.4831 78.5881 28.2948 78.5719C28.1064 78.5557 27.9782 78.5098 27.9072 78.4342C27.8553 78.3802 27.8335 78.3099 27.839 78.2208C27.8444 78.1344 27.8635 78.0534 27.899 77.9751C27.9345 77.8994 27.9754 77.8346 28.0218 77.7779C28.0682 77.7239 28.1064 77.6969 28.1365 77.6969C28.2784 77.7185 28.4503 77.7374 28.655 77.7536C28.857 77.7698 29.0917 77.7536 29.3537 77.6969C29.4847 77.6645 29.6348 77.6078 29.8013 77.5241C29.9678 77.443 30.1261 77.3242 30.2735 77.173C30.4209 77.0217 30.541 76.8327 30.631 76.6086C30.7211 76.3844 30.7539 76.117 30.7211 75.8011C30.6911 75.4635 30.6038 75.1718 30.4618 74.9261C30.3199 74.6803 30.1425 74.4859 29.9296 74.3373C29.7167 74.1915 29.4765 74.0889 29.2063 74.0349C28.9389 73.9809 28.655 73.97 28.363 74.0025C28.0982 74.0241 27.8526 74.1051 27.6261 74.2482C27.3968 74.3886 27.2631 74.6344 27.2221 74.9828C27.1703 75.4392 27.1348 75.9307 27.1157 76.4519C27.0966 76.9758 27.0857 77.5079 27.0857 78.0534C27.0857 78.5989 27.0966 79.139 27.1157 79.6792C27.1348 80.2193 27.1703 80.7324 27.2221 81.2239H27.2194Z" fill="#E8394B"/>
<path d="M35.2383 79.7062C35.1864 77.9751 35.1864 76.244 35.2383 74.5129C35.2492 74.1645 35.1482 73.9269 34.9353 73.8026C34.7225 73.6784 34.4277 73.6136 34.0538 73.6136C34.0238 73.6136 34.0046 73.5812 33.9992 73.5164C33.9937 73.4516 33.9992 73.3786 34.0074 73.2949C34.0183 73.2139 34.0401 73.141 34.0756 73.0735C34.1111 73.0087 34.1548 72.9762 34.2039 72.9762C34.4168 72.9762 34.7143 72.9817 35.0936 72.9925C35.473 73.0033 35.877 73.0087 36.3027 73.0087C36.4638 73.0087 36.6521 73.0087 36.865 73.0006C37.0779 72.9952 37.2907 72.9925 37.5036 72.9925C37.7165 72.9925 37.9157 72.9925 38.1041 72.9844C38.2924 72.9789 38.4398 72.9762 38.5517 72.9762C38.5817 72.9762 38.6008 73.0141 38.6035 73.0897C38.609 73.1653 38.6035 73.249 38.5953 73.3354C38.5844 73.4218 38.5626 73.5056 38.5271 73.5812C38.4916 73.6568 38.448 73.6946 38.3988 73.6946C38.0222 73.6946 37.7493 73.7432 37.5773 73.8405C37.4054 73.9377 37.3098 74.1618 37.288 74.5102C37.1761 76.2413 37.1761 77.9724 37.288 79.7035C37.318 80.2706 37.4272 80.7486 37.6155 81.1402C37.8038 81.5318 38.044 81.837 38.3388 82.0557C38.6336 82.2745 38.9638 82.4149 39.335 82.4797C39.7062 82.5445 40.0883 82.5337 40.484 82.4473C41.0217 82.3285 41.4557 82.0044 41.7859 81.4751C42.1162 80.9485 42.3154 80.1977 42.3864 79.2282C42.4382 78.4234 42.4628 77.6213 42.4628 76.8273C42.4628 76.0334 42.4382 75.2583 42.3864 74.5075C42.3645 74.1591 42.2526 73.9215 42.0452 73.7972C41.8378 73.673 41.5212 73.6082 41.0954 73.6082C41.0654 73.6082 41.0463 73.5758 41.0408 73.511C41.0353 73.4462 41.0408 73.3732 41.049 73.2895C41.0599 73.2085 41.0817 73.1356 41.1172 73.0681C41.1527 73.0033 41.1964 72.9709 41.2455 72.9709C41.4584 72.9709 41.7259 72.9763 42.0507 72.9871C42.3754 72.9979 42.6429 73.0033 42.8558 73.0033C42.9868 73.0033 43.1478 72.9979 43.3362 72.9871C43.5245 72.9763 43.7101 72.9627 43.8984 72.9465C44.0867 72.9303 44.2614 72.9141 44.4224 72.8979C44.5834 72.8817 44.7063 72.8682 44.7881 72.8574C44.8182 72.8574 44.8373 72.8925 44.8427 72.9627C44.8482 73.033 44.8427 73.1113 44.8345 73.2004C44.8236 73.2868 44.8018 73.3705 44.7663 73.4462C44.7308 73.5218 44.6872 73.565 44.638 73.5758C44.3132 73.619 44.0567 73.6973 43.8711 73.8134C43.6828 73.9269 43.5954 74.1591 43.6036 74.5075C43.6227 75.1935 43.6336 75.9091 43.6336 76.6545C43.6336 77.3999 43.6227 78.1479 43.6036 78.9014C43.5518 80.3381 43.2515 81.4913 42.6975 82.3555C42.1434 83.2224 41.281 83.7409 40.1047 83.9165C39.3022 84.0353 38.6035 84.0218 38.0058 83.8759C37.4081 83.7301 36.9059 83.4708 36.4992 83.1009C36.0926 82.7309 35.7869 82.2583 35.5795 81.6803C35.372 81.1024 35.2574 80.4435 35.2383 79.7035V79.7062Z" fill="#E8394B"/>
<path d="M49.8862 73.8757C49.2476 73.8757 48.7536 74.008 48.4042 74.2754C48.0549 74.5427 47.8802 74.8776 47.8802 75.28C47.8802 75.5096 47.9348 75.7094 48.0467 75.8849C48.1586 76.0605 48.3114 76.2198 48.5025 76.3656C48.6962 76.5115 48.9201 76.6465 49.1793 76.7653C49.4386 76.8842 49.7143 77.0003 50.009 77.1083C50.5167 77.3055 50.9889 77.5107 51.4228 77.7295C51.8595 77.9482 52.2389 78.1967 52.5637 78.4802C52.8885 78.7638 53.145 79.0906 53.3306 79.4606C53.5189 79.8305 53.6117 80.2653 53.6117 80.7677C53.6117 81.27 53.5217 81.7291 53.3388 82.1153C53.1559 82.5015 52.9021 82.8309 52.5773 83.1037C52.2525 83.3765 51.8595 83.579 51.3983 83.7167C50.937 83.8518 50.4266 83.922 49.8699 83.922C49.1711 83.922 48.5843 83.8491 48.1122 83.7059C47.64 83.5601 47.217 83.3738 46.8431 83.1496C46.7912 83.1172 46.7093 83.1037 46.592 83.1091C46.4746 83.1145 46.3873 83.0632 46.3245 82.9552C46.1635 82.6743 46.0434 82.3583 45.9669 82.0018C45.8905 81.6481 45.8523 81.3294 45.8523 81.0458C45.8523 80.9378 45.8878 80.8352 45.9588 80.7434C46.0297 80.6515 46.1116 80.5732 46.2017 80.5138C46.2917 80.4544 46.3791 80.422 46.4609 80.4166C46.5428 80.4112 46.592 80.4301 46.6138 80.4733C46.8785 81.1593 47.247 81.6967 47.7246 82.0829C48.2022 82.469 48.8409 82.6743 49.6406 82.6959C50.3393 82.7175 50.8688 82.6095 51.2236 82.3691C51.5784 82.1288 51.7449 81.748 51.7258 81.2241C51.7149 80.9621 51.6412 80.7298 51.5047 80.5273C51.3682 80.3248 51.1963 80.1438 50.9861 79.9791C50.7787 79.8143 50.5413 79.6685 50.2792 79.5362C50.0145 79.4066 49.7525 79.2796 49.4877 79.1608C49.0101 78.9528 48.5625 78.7476 48.1422 78.5397C47.7219 78.3317 47.3534 78.0994 47.0396 77.8375C46.7257 77.5755 46.4746 77.2731 46.2863 76.9301C46.0979 76.5871 46.0052 76.1685 46.0052 75.6797C46.0052 75.2233 46.1034 74.8101 46.3026 74.4455C46.4992 74.0809 46.7666 73.7677 47.1023 73.5057C47.438 73.2437 47.8283 73.0439 48.2732 72.9089C48.7181 72.7738 49.1957 72.7036 49.7034 72.7036C50.342 72.7036 50.9043 72.7738 51.3928 72.917C51.8786 73.0574 52.3098 73.2437 52.6865 73.4733C52.7274 73.4949 52.7602 73.5138 52.7847 73.53C52.8093 73.5462 52.8339 73.5759 52.853 73.6191C52.9048 73.7596 52.9512 73.927 52.9976 74.116C53.044 74.3078 53.085 74.4995 53.1205 74.6967C53.1559 74.8938 53.1832 75.0802 53.2051 75.2611C53.2242 75.4393 53.2351 75.5852 53.2351 75.6932C53.2351 75.812 53.2023 75.8903 53.1368 75.9228C53.0713 75.9552 52.9949 75.9687 52.9076 75.9633C52.8202 75.9579 52.7438 75.9417 52.6729 75.9147C52.6019 75.8876 52.5664 75.8687 52.5664 75.8579C52.4845 75.488 52.3508 75.1774 52.1625 74.9262C51.9741 74.6751 51.7558 74.4725 51.5074 74.3132C51.2591 74.1566 50.9916 74.0431 50.7077 73.9783C50.4239 73.9135 50.151 73.8811 49.8862 73.8811V73.8757Z" fill="#E8394B"/>
<path d="M53.994 83.5921C53.9639 83.5921 53.9448 83.5597 53.9394 83.4949C53.9339 83.4301 53.9394 83.3599 53.9476 83.2816C53.9585 83.206 53.9803 83.133 54.0158 83.0601C54.0513 82.9899 54.0949 82.9494 54.1441 82.9386C54.357 82.8846 54.548 82.8036 54.7145 82.6928C54.881 82.5848 55.0366 82.3661 55.1785 82.0393C55.4623 81.3533 55.7462 80.6809 56.03 80.0219C56.3139 79.363 56.595 78.7013 56.8734 78.037C57.1518 77.3726 57.4383 76.7056 57.7331 76.0358C58.0279 75.3661 58.3363 74.672 58.6611 73.9536L58.5082 73.5458C58.4673 73.4486 58.5082 73.3838 58.6311 73.3487C58.8439 73.2947 59.0923 73.1948 59.3762 73.0462C59.66 72.9004 59.8838 72.7114 60.0448 72.4818C60.0967 72.417 60.1404 72.4008 60.1813 72.4332C60.2222 72.4656 60.2523 72.5088 60.2714 72.5628C60.91 74.2291 61.5323 75.8549 62.1355 77.4374C62.7387 79.0227 63.3091 80.5594 63.8468 82.0528C63.9587 82.3688 64.106 82.5821 64.2889 82.6901C64.4718 82.7982 64.6956 82.8522 64.9576 82.8522C64.9876 82.8522 65.0067 82.89 65.0122 82.9656C65.0176 83.0412 65.0122 83.1249 65.004 83.2195C64.9931 83.3113 64.9712 83.395 64.9358 83.4733C64.9003 83.5489 64.8566 83.5868 64.8075 83.5868C64.5946 83.5868 64.3571 83.5813 64.0924 83.5705C63.8277 83.5597 63.4838 83.5543 63.058 83.5543C62.8751 83.5543 62.6677 83.557 62.433 83.5624C62.1983 83.5678 61.969 83.5705 61.7397 83.5705C61.5105 83.5705 61.2976 83.5705 61.1011 83.5786C60.9046 83.584 60.7545 83.5868 60.6535 83.5868C60.6234 83.5868 60.6043 83.5543 60.5989 83.4895C60.5934 83.4247 60.5989 83.3518 60.6071 83.2681C60.618 83.1871 60.6398 83.1114 60.6753 83.0385C60.7108 82.9683 60.7545 82.9332 60.8036 82.9332C61.2294 82.9332 61.505 82.863 61.6333 82.7198C61.7588 82.5794 61.7889 82.3553 61.7179 82.0501C61.606 81.5829 61.445 81.1724 61.2321 80.824C61.172 80.716 61.0792 80.6512 60.9592 80.6269C60.3205 80.5729 59.6955 80.5486 59.0869 80.554C58.4782 80.5594 57.8559 80.5945 57.2145 80.6593C57.0917 80.6701 57.0071 80.7295 56.9553 80.8402C56.8434 81.0158 56.7424 81.1967 56.6523 81.3884C56.5622 81.5802 56.4913 81.7881 56.4394 82.0177C56.3575 82.3661 56.393 82.5902 56.5459 82.6874C56.6987 82.7847 57.018 82.8333 57.5039 82.8333C57.5339 82.8333 57.553 82.8711 57.5557 82.9467C57.5612 83.0223 57.5557 83.1087 57.5475 83.2087C57.5366 83.3059 57.5148 83.395 57.4793 83.4706C57.4438 83.5462 57.4001 83.584 57.351 83.584L55.435 83.5678C55.1703 83.5678 54.9055 83.5678 54.6353 83.5759C54.3679 83.5813 54.1523 83.584 53.9885 83.584L53.994 83.5921ZM57.5994 79.3306C57.5694 79.4494 57.6048 79.5169 57.7058 79.5277C58.1916 79.5817 58.672 79.606 59.1442 79.6006C59.6163 79.5952 60.094 79.5601 60.5825 79.4953C60.6835 79.4845 60.719 79.4197 60.689 79.2982C60.6371 79.101 60.5634 78.8607 60.4679 78.5717C60.3724 78.2827 60.2605 77.9722 60.1322 77.64C60.0066 77.3078 59.8674 76.9648 59.7228 76.6111C59.5754 76.2573 59.4198 75.9062 59.2588 75.5578H59.2288C58.8521 76.3086 58.5301 76.9945 58.2626 77.6157C57.9951 78.2368 57.7741 78.8067 57.6021 79.3306H57.5994Z" fill="#E8394B"/>
<path d="M65.5117 83.5921C65.4817 83.5921 65.4626 83.5597 65.4571 83.4949C65.4516 83.4301 65.4571 83.3572 65.4653 83.2734C65.4762 83.1924 65.498 83.1168 65.5335 83.0439C65.569 82.9737 65.6127 82.9386 65.6618 82.9386C65.9156 82.9062 66.1258 82.8737 66.2923 82.8413C66.4587 82.8089 66.5952 82.763 66.7017 82.7036C66.8081 82.6442 66.8872 82.5632 66.9364 82.4579C66.9882 82.3552 67.0183 82.2148 67.0264 82.042C67.0783 80.7781 67.1029 79.5385 67.1029 78.3178C67.1029 77.0971 67.0783 75.8575 67.0264 74.5937C67.0073 74.2453 66.8872 74.0076 66.6689 73.8834C66.4506 73.7592 66.0739 73.6944 65.5362 73.6944C65.5062 73.6944 65.4871 73.6565 65.4817 73.5809C65.4762 73.5053 65.4817 73.4243 65.4898 73.3352C65.5008 73.2487 65.5226 73.165 65.5581 73.0894C65.5936 73.0138 65.6372 72.976 65.6864 72.976C65.7873 72.976 65.9183 72.9787 66.0821 72.9841C66.2431 72.9895 66.4124 72.9922 66.5843 72.9922C66.7562 72.9922 66.92 72.9949 67.0783 73.0003C67.2366 73.0057 67.3703 73.0084 67.4822 73.0084C67.807 73.0084 68.1018 73.003 68.3638 72.9922C68.6285 72.9814 68.8605 72.976 69.0625 72.976C69.1444 72.976 69.1962 72.9868 69.2235 73.0084C69.2481 73.03 69.2672 73.0597 69.2781 73.0975C69.289 73.1353 69.3 73.1839 69.3163 73.2433C69.3327 73.3028 69.3709 73.3703 69.431 73.4486C70.1815 74.4721 70.9266 75.5308 71.6663 76.6245C72.4059 77.7183 73.1264 78.8255 73.8279 79.949C73.9398 80.1245 74.0217 80.2758 74.079 80.4054C74.1336 80.535 74.1827 80.6619 74.2236 80.7808L74.2536 80.7646C74.2127 80.535 74.1991 80.265 74.2073 79.949C74.2482 79.0551 74.2646 78.1477 74.2591 77.2214C74.2536 76.295 74.2264 75.393 74.1745 74.5099C74.1527 74.1616 74.0571 73.9239 73.8852 73.7997C73.7132 73.6754 73.4376 73.6106 73.0637 73.6106C73.0337 73.6106 73.0145 73.5782 73.0091 73.5134C73.0036 73.4486 73.0091 73.3757 73.0173 73.292C73.0282 73.2109 73.05 73.138 73.0855 73.0705C73.121 73.0057 73.1647 72.9733 73.2138 72.9733C73.4267 72.9733 73.675 72.9787 73.9589 72.9895C74.2427 73.0003 74.4911 73.0057 74.704 73.0057C75.1898 73.0057 75.6238 72.9895 76.0059 72.9571C76.388 72.9247 76.6827 72.8923 76.8956 72.8599C76.9256 72.8599 76.9447 72.895 76.9502 72.9652C76.9557 73.0354 76.9502 73.1164 76.942 73.2109C76.9311 73.3028 76.9093 73.3892 76.8738 73.4648C76.8383 73.5404 76.7946 73.5782 76.7455 73.5782C76.4808 73.5998 76.2624 73.6268 76.0905 73.6592C75.9185 73.6917 75.7821 73.743 75.6811 73.8132C75.5801 73.8834 75.5091 73.9752 75.4682 74.0832C75.4273 74.1913 75.4027 74.3344 75.3918 74.5072C75.3399 75.6604 75.3044 76.8217 75.2853 77.9856C75.2662 79.1496 75.2662 80.3379 75.2853 81.545C75.2962 81.969 75.3126 82.3066 75.3399 82.5578C75.3645 82.8089 75.3918 82.998 75.4163 83.1303C75.4409 83.2599 75.4627 83.3491 75.4764 83.3923C75.4928 83.4355 75.49 83.4733 75.4682 83.5057C75.4491 83.5381 75.3809 83.5678 75.2717 83.5948C75.1598 83.6218 75.0288 83.6461 74.8759 83.6677C74.7231 83.6893 74.5703 83.7082 74.412 83.7244C74.2537 83.7406 74.1254 83.7487 74.0244 83.7487C73.9643 83.7487 73.9125 83.7217 73.8715 83.6677C73.02 82.2742 72.1603 80.9185 71.2923 79.6006C70.4244 78.2827 69.5456 77.0242 68.6531 75.8278C68.5221 75.655 68.4238 75.5011 68.3638 75.3714C68.3038 75.2418 68.2464 75.1149 68.1973 74.9961L68.1673 75.0123C68.1864 75.1311 68.2055 75.2553 68.2191 75.3795C68.2355 75.5038 68.2355 75.655 68.2273 75.8278C68.1755 76.8514 68.1536 77.8776 68.1591 78.9065C68.1646 79.9355 68.1919 80.9779 68.2437 82.0339C68.2628 82.3822 68.3638 82.6064 68.5412 82.7036C68.7186 82.8008 68.9943 82.8494 69.3709 82.8494C69.4009 82.8494 69.42 82.8873 69.4228 82.9629C69.4282 83.0385 69.4228 83.1222 69.4146 83.2167C69.4037 83.3086 69.3818 83.3923 69.3464 83.4706C69.3109 83.5462 69.2672 83.584 69.2181 83.584L67.5587 83.5678C67.182 83.5678 66.7999 83.5678 66.4096 83.5759C66.0193 83.5813 65.7164 83.584 65.5035 83.584L65.5117 83.5921Z" fill="#E8394B"/>
<path d="M86.9613 73.8757C86.3226 73.8757 85.8286 74.008 85.4793 74.2754C85.1299 74.5427 84.9552 74.8776 84.9552 75.28C84.9552 75.5096 85.0098 75.7094 85.1217 75.8849C85.2336 76.0605 85.3865 76.2198 85.5775 76.3656C85.7713 76.5115 85.9951 76.6465 86.2544 76.7653C86.5137 76.8842 86.7893 77.0003 87.0841 77.1083C87.5918 77.3055 88.0639 77.5107 88.4979 77.7295C88.9346 77.9482 89.3139 78.1967 89.6387 78.4802C89.9635 78.7638 90.2201 79.0906 90.4057 79.4606C90.594 79.8305 90.6868 80.2653 90.6868 80.7677C90.6868 81.27 90.5967 81.7291 90.4139 82.1153C90.231 82.5015 89.9772 82.8309 89.6524 83.1037C89.3276 83.3765 88.9346 83.579 88.4733 83.7167C88.0121 83.8518 87.5017 83.922 86.9449 83.922C86.2462 83.922 85.6594 83.8491 85.1872 83.7059C84.7151 83.5601 84.292 83.3738 83.9181 83.1496C83.8663 83.1172 83.7844 83.1037 83.667 83.1091C83.5496 83.1145 83.4623 83.0632 83.3995 82.9552C83.2385 82.6743 83.1184 82.3583 83.042 82.0018C82.9656 81.6481 82.9274 81.3294 82.9274 81.0458C82.9274 80.9378 82.9629 80.8352 83.0338 80.7434C83.1048 80.6515 83.1867 80.5732 83.2767 80.5138C83.3668 80.4544 83.4541 80.422 83.536 80.4166C83.6179 80.4112 83.667 80.4301 83.6888 80.4733C83.9536 81.1593 84.322 81.6967 84.7997 82.0829C85.2773 82.469 85.916 82.6743 86.7156 82.6959C87.4144 82.7175 87.9438 82.6095 88.2986 82.3691C88.6535 82.1288 88.8199 81.748 88.8008 81.2241C88.7899 80.9621 88.7162 80.7298 88.5798 80.5273C88.4433 80.3248 88.2714 80.1438 88.0612 79.9791C87.8538 79.8143 87.6163 79.6685 87.3543 79.5362C87.0896 79.4066 86.8275 79.2796 86.5628 79.1608C86.0852 78.9528 85.6376 78.7476 85.2173 78.5397C84.7969 78.3317 84.4285 78.0994 84.1146 77.8375C83.8007 77.5755 83.5496 77.2731 83.3613 76.9301C83.173 76.5871 83.0802 76.1685 83.0802 75.6797C83.0802 75.2233 83.1785 74.8101 83.3777 74.4455C83.5742 74.0809 83.8417 73.7677 84.1774 73.5057C84.5131 73.2437 84.9034 73.0439 85.3483 72.9089C85.7931 72.7738 86.2708 72.7036 86.7784 72.7036C87.4171 72.7036 87.9793 72.7738 88.4679 72.917C88.9537 73.0574 89.3849 73.2437 89.7616 73.4733C89.8025 73.4949 89.8352 73.5138 89.8598 73.53C89.8844 73.5462 89.9089 73.5759 89.928 73.6191C89.9799 73.7596 90.0263 73.927 90.0727 74.116C90.1191 74.3078 90.16 74.4995 90.1955 74.6967C90.231 74.8938 90.2583 75.0802 90.2801 75.2611C90.2992 75.4393 90.3101 75.5852 90.3101 75.6932C90.3101 75.812 90.2774 75.8903 90.2119 75.9228C90.1464 75.9552 90.07 75.9687 89.9826 75.9633C89.8953 75.9579 89.8189 75.9417 89.7479 75.9147C89.6769 75.8876 89.6415 75.8687 89.6415 75.8579C89.5596 75.488 89.4258 75.1774 89.2375 74.9262C89.0492 74.6751 88.8309 74.4725 88.5825 74.3132C88.3341 74.1566 88.0667 74.0431 87.7828 73.9783C87.499 73.9135 87.226 73.8811 86.9613 73.8811V73.8757Z" fill="#E8394B"/>
<path d="M91.0686 83.5921C91.0386 83.5921 91.0195 83.5597 91.014 83.4949C91.0086 83.4301 91.014 83.3599 91.0222 83.2816C91.0331 83.206 91.055 83.133 91.0905 83.0601C91.1259 82.9899 91.1696 82.9494 91.2187 82.9386C91.4316 82.8846 91.6227 82.8036 91.7892 82.6928C91.9556 82.5848 92.1112 82.3661 92.2531 82.0393C92.537 81.3533 92.8208 80.6809 93.1047 80.0219C93.3885 79.363 93.6697 78.7013 93.948 78.037C94.2264 77.3726 94.513 76.7056 94.8078 76.0358C95.1025 75.3661 95.4109 74.672 95.7357 73.9536L95.5829 73.5458C95.542 73.4486 95.5829 73.3838 95.7057 73.3487C95.9186 73.2947 96.167 73.1948 96.4508 73.0462C96.7347 72.9004 96.9585 72.7114 97.1195 72.4818C97.1714 72.417 97.215 72.4008 97.256 72.4332C97.2969 72.4656 97.3269 72.5088 97.346 72.5628C97.9847 74.2291 98.607 75.8549 99.2101 77.4374C99.8133 79.0227 100.384 80.5594 100.921 82.0528C101.033 82.3688 101.181 82.5821 101.364 82.6901C101.546 82.7982 101.77 82.8522 102.032 82.8522C102.062 82.8522 102.081 82.89 102.087 82.9656C102.092 83.0412 102.087 83.1249 102.079 83.2195C102.068 83.3113 102.046 83.395 102.01 83.4733C101.975 83.5489 101.931 83.5868 101.882 83.5868C101.669 83.5868 101.432 83.5813 101.167 83.5705C100.902 83.5597 100.558 83.5543 100.133 83.5543C99.9498 83.5543 99.7424 83.557 99.5076 83.5624C99.2729 83.5678 99.0437 83.5705 98.8144 83.5705C98.5851 83.5705 98.3722 83.5705 98.1757 83.5786C97.9792 83.584 97.8291 83.5868 97.7281 83.5868C97.6981 83.5868 97.679 83.5543 97.6735 83.4895C97.6681 83.4247 97.6735 83.3518 97.6817 83.2681C97.6927 83.1871 97.7145 83.1114 97.75 83.0385C97.7854 82.9683 97.8291 82.9332 97.8782 82.9332C98.304 82.9332 98.5797 82.863 98.708 82.7198C98.8335 82.5794 98.8635 82.3553 98.7926 82.0501C98.6807 81.5829 98.5196 81.1724 98.3067 80.824C98.2467 80.716 98.1539 80.6512 98.0338 80.6269C97.3952 80.5729 96.7701 80.5486 96.1615 80.554C95.5529 80.5594 94.9306 80.5945 94.2892 80.6593C94.1664 80.6701 94.0818 80.7295 94.0299 80.8402C93.918 81.0158 93.817 81.1967 93.727 81.3884C93.6369 81.5802 93.5659 81.7881 93.5141 82.0177C93.4322 82.3661 93.4677 82.5902 93.6205 82.6874C93.7734 82.7847 94.0927 82.8333 94.5785 82.8333C94.6085 82.8333 94.6276 82.8711 94.6304 82.9467C94.6358 83.0223 94.6304 83.1087 94.6222 83.2087C94.6113 83.3059 94.5894 83.395 94.5539 83.4706C94.5185 83.5462 94.4748 83.584 94.4257 83.584L92.5097 83.5678C92.245 83.5678 91.9802 83.5678 91.71 83.5759C91.4425 83.5813 91.2269 83.584 91.0632 83.584L91.0686 83.5921ZM94.674 79.3306C94.644 79.4494 94.6795 79.5169 94.7805 79.5277C95.2663 79.5817 95.7467 79.606 96.2188 79.6006C96.691 79.5952 97.1686 79.5601 97.6572 79.4953C97.7582 79.4845 97.7936 79.4197 97.7636 79.2982C97.7118 79.101 97.6381 78.8607 97.5425 78.5717C97.447 78.2827 97.3351 77.9722 97.2068 77.64C97.0813 77.3078 96.9421 76.9648 96.7974 76.6111C96.6501 76.2573 96.4945 75.9062 96.3335 75.5578H96.3034C95.9268 76.3086 95.6047 76.9945 95.3373 77.6157C95.0698 78.2368 94.8487 78.8067 94.6768 79.3306H94.674Z" fill="#E8394B"/>
<path d="M102.584 83.5921C102.554 83.5921 102.535 83.5597 102.529 83.4949C102.524 83.4301 102.529 83.3572 102.537 83.2734C102.548 83.1924 102.57 83.1168 102.606 83.0439C102.641 82.9737 102.685 82.9386 102.734 82.9386C102.988 82.9062 103.198 82.8737 103.364 82.8413C103.531 82.8089 103.667 82.763 103.774 82.7036C103.88 82.6442 103.959 82.5632 104.008 82.4579C104.06 82.3552 104.09 82.2148 104.098 82.042C104.15 80.7781 104.175 79.5385 104.175 78.3178C104.175 77.0971 104.15 75.8575 104.098 74.5937C104.079 74.2453 103.959 74.0076 103.741 73.8834C103.523 73.7592 103.146 73.6944 102.608 73.6944C102.578 73.6944 102.559 73.6565 102.554 73.5809C102.548 73.5053 102.554 73.4243 102.562 73.3352C102.573 73.2487 102.595 73.165 102.63 73.0894C102.666 73.0138 102.709 72.976 102.758 72.976C102.859 72.976 102.99 72.9787 103.154 72.9841C103.315 72.9895 103.484 72.9922 103.656 72.9922C103.828 72.9922 103.995 72.9949 104.15 73.0003C104.309 73.0057 104.442 73.0084 104.554 73.0084C104.879 73.0084 105.174 73.003 105.436 72.9922C105.701 72.9814 105.933 72.976 106.134 72.976C106.216 72.976 106.268 72.9868 106.296 73.0084C106.32 73.03 106.339 73.0597 106.347 73.0975C106.358 73.1353 106.369 73.1839 106.386 73.2433C106.402 73.3028 106.44 73.3703 106.5 73.4486C107.251 74.4721 107.996 75.5308 108.736 76.6245C109.475 77.7183 110.196 78.8255 110.894 79.949C111.006 80.1245 111.088 80.2758 111.146 80.4054C111.2 80.535 111.249 80.6619 111.29 80.7808L111.32 80.7646C111.279 80.535 111.266 80.265 111.274 79.949C111.315 79.0551 111.331 78.1477 111.328 77.2214C111.323 76.295 111.296 75.393 111.244 74.5099C111.225 74.1616 111.126 73.9239 110.954 73.7997C110.783 73.6754 110.507 73.6106 110.133 73.6106C110.103 73.6106 110.084 73.5782 110.078 73.5134C110.073 73.4486 110.078 73.3757 110.087 73.292C110.097 73.2109 110.119 73.138 110.155 73.0705C110.19 73.0057 110.234 72.9733 110.283 72.9733C110.496 72.9733 110.744 72.9787 111.028 72.9895C111.312 73.0003 111.56 73.0057 111.773 73.0057C112.259 73.0057 112.693 72.9895 113.075 72.9571C113.457 72.9247 113.752 72.8923 113.965 72.8599C113.995 72.8599 114.014 72.895 114.017 72.9652C114.022 73.0354 114.019 73.1164 114.009 73.2109C113.998 73.3028 113.976 73.3892 113.94 73.4648C113.905 73.5404 113.861 73.5782 113.812 73.5782C113.547 73.5998 113.332 73.6268 113.157 73.6592C112.982 73.6917 112.849 73.743 112.748 73.8132C112.647 73.8834 112.576 73.9752 112.535 74.0832C112.494 74.1913 112.469 74.3344 112.458 74.5072C112.406 75.6604 112.371 76.8217 112.352 77.9856C112.333 79.1496 112.333 80.3379 112.352 81.545C112.363 81.969 112.379 82.3066 112.406 82.5578C112.431 82.8089 112.458 82.998 112.483 83.1303C112.507 83.2599 112.529 83.3491 112.543 83.3923C112.557 83.4355 112.557 83.4733 112.535 83.5057C112.513 83.5381 112.447 83.5678 112.338 83.5948C112.226 83.6218 112.095 83.6461 111.942 83.6677C111.79 83.6893 111.637 83.7082 111.478 83.7244C111.32 83.7406 111.192 83.7487 111.091 83.7487C111.031 83.7487 110.979 83.7217 110.938 83.6677C110.087 82.2742 109.227 80.9185 108.359 79.6006C107.491 78.2827 106.612 77.0242 105.72 75.8278C105.589 75.655 105.49 75.5011 105.43 75.3714C105.37 75.2418 105.313 75.1149 105.264 74.9961L105.234 75.0123C105.253 75.1311 105.272 75.2553 105.288 75.3795C105.305 75.5038 105.305 75.655 105.297 75.8278C105.245 76.8514 105.223 77.8776 105.228 78.9065C105.234 79.9355 105.261 80.9779 105.313 82.0339C105.332 82.3822 105.433 82.6064 105.61 82.7036C105.788 82.8008 106.064 82.8494 106.44 82.8494C106.47 82.8494 106.489 82.8873 106.492 82.9629C106.497 83.0385 106.492 83.1222 106.484 83.2167C106.473 83.3086 106.451 83.3923 106.416 83.4706C106.38 83.5462 106.336 83.584 106.287 83.584L104.628 83.5678C104.251 83.5678 103.869 83.5678 103.479 83.5759C103.089 83.5813 102.786 83.584 102.573 83.584L102.584 83.5921Z" fill="#E8394B"/>
<path d="M120.947 72.8951C121.686 72.8627 122.374 72.9302 123.007 73.1003C123.64 73.2705 124.194 73.5405 124.667 73.9159C125.139 74.2913 125.518 74.772 125.808 75.3526C126.097 75.936 126.266 76.6246 126.318 77.4186C126.378 78.3017 126.269 79.1173 125.99 79.8681C125.712 80.6188 125.316 81.2724 124.803 81.8287C124.29 82.385 123.687 82.8306 122.994 83.1682C122.298 83.5058 121.566 83.7029 120.796 83.757C120.472 83.7786 120.174 83.7813 119.899 83.7651C119.626 83.7489 119.364 83.7272 119.115 83.7002C118.867 83.6732 118.627 83.6462 118.392 83.6192C118.157 83.5922 117.92 83.5787 117.677 83.5787H116.992C116.749 83.5787 116.511 83.5787 116.285 83.5868C116.056 83.5922 115.846 83.5949 115.654 83.5949H115.212C115.182 83.5949 115.163 83.5625 115.16 83.4977C115.155 83.4329 115.158 83.36 115.169 83.2762C115.18 83.1952 115.201 83.1223 115.237 83.0548C115.272 82.9873 115.316 82.9522 115.365 82.9414C115.608 82.909 115.813 82.8766 115.982 82.8442C116.148 82.8117 116.288 82.7658 116.4 82.7064C116.511 82.647 116.593 82.566 116.642 82.4607C116.694 82.358 116.724 82.2176 116.733 82.0448C116.834 79.5413 116.834 77.0297 116.733 74.5154C116.713 74.1671 116.593 73.9294 116.375 73.8052C116.157 73.681 115.78 73.6161 115.242 73.6161C115.212 73.6161 115.193 73.5837 115.19 73.5189C115.185 73.4541 115.188 73.3812 115.199 73.2975C115.21 73.2164 115.231 73.1435 115.267 73.076C115.302 73.0085 115.346 72.9788 115.395 72.9788C115.496 72.9788 115.638 72.9815 115.821 72.9869C116.004 72.9923 116.2 72.995 116.413 72.995C116.626 72.995 116.85 72.9977 117.082 73.0031C117.314 73.0085 117.538 73.0112 117.751 73.0112C118.176 73.0112 118.668 72.9977 119.227 72.9707C119.784 72.9437 120.357 72.9194 120.947 72.8978V72.8951ZM121.525 82.5309C121.951 82.4445 122.347 82.2932 122.712 82.0826C123.078 81.8692 123.389 81.5911 123.649 81.2427C123.908 80.8943 124.102 80.4784 124.235 79.9923C124.366 79.5089 124.407 78.9499 124.358 78.3179C124.306 77.6644 124.175 77.0621 123.962 76.5139C123.75 75.963 123.474 75.4985 123.133 75.1177C122.792 74.7369 122.396 74.4506 121.937 74.2589C121.482 74.0698 120.988 73.9996 120.461 74.0536C119.923 74.1077 119.516 74.24 119.244 74.4452C118.971 74.6532 118.818 75.0124 118.788 75.5228C118.736 76.4491 118.711 77.3997 118.711 78.3719C118.711 79.3442 118.736 80.2975 118.788 81.2211C118.799 81.5154 118.883 81.7639 119.047 81.9637C119.208 82.1663 119.415 82.3175 119.664 82.4202C119.912 82.5228 120.199 82.5822 120.524 82.6011C120.848 82.6173 121.184 82.593 121.528 82.5282L121.525 82.5309Z" fill="#E8394B"/>
<path d="M63.8742 2.37646C64.0598 3.86991 64.0625 5.36605 63.8742 6.85679C63.6858 5.36335 63.6886 3.86721 63.8742 2.37646Z" fill="#E8394B"/>
<path d="M66.1394 4.61531C64.6301 4.79895 63.118 4.80165 61.6115 4.61531C63.1208 4.42897 64.6328 4.43167 66.1394 4.61531Z" fill="#E8394B"/>
<path d="M63.3201 4.06435C62.9926 3.99954 62.7851 3.79699 62.7196 3.47021C63.0499 3.53233 63.2546 3.73758 63.3201 4.06435Z" fill="#E8394B"/>
<path d="M63.3201 5.1665C63.2546 5.49058 63.0499 5.69583 62.7196 5.76064C62.7824 5.43387 62.9898 5.23132 63.3201 5.1665Z" fill="#E8394B"/>
<path d="M64.4309 4.06435C64.4964 3.74028 64.7011 3.53503 65.0314 3.47021C64.9686 3.79699 64.7612 3.99954 64.4309 4.06435Z" fill="#E8394B"/>
<path d="M64.4309 5.1665C64.7584 5.23132 64.9659 5.43387 65.0314 5.76064C64.7011 5.69853 64.4964 5.49328 64.4309 5.1665Z" fill="#E8394B"/>
<path d="M40.2683 10.5674C40.4539 12.0608 40.4566 13.557 40.2683 15.0477C40.08 13.5543 40.0827 12.0581 40.2683 10.5674Z" fill="#E8394B"/>
<path d="M42.5335 12.8092C41.0242 12.9928 39.5121 12.9955 38.0056 12.8092C39.5149 12.6228 41.0269 12.6255 42.5335 12.8092Z" fill="#E8394B"/>
<path d="M39.7142 12.2582C39.3867 12.1934 39.1792 11.9908 39.1137 11.6641C39.444 11.7262 39.6487 11.9314 39.7142 12.2582Z" fill="#E8394B"/>
<path d="M39.7142 13.3574C39.6487 13.6815 39.444 13.8867 39.1137 13.9516C39.1765 13.6248 39.3839 13.4222 39.7142 13.3574Z" fill="#E8394B"/>
<path d="M40.825 12.2582C40.8905 11.9341 41.0952 11.7289 41.4255 11.6641C41.3627 11.9908 41.1553 12.1934 40.825 12.2582Z" fill="#E8394B"/>
<path d="M40.825 13.3574C41.1525 13.4222 41.36 13.6248 41.4255 13.9516C41.0952 13.8894 40.8905 13.6842 40.825 13.3574Z" fill="#E8394B"/>
<path d="M106.667 6.00879C106.852 7.50223 106.855 8.99837 106.667 10.4891C106.479 8.99567 106.481 7.49953 106.667 6.00879Z" fill="#E8394B"/>
<path d="M108.929 8.25056C107.42 8.4342 105.908 8.43691 104.401 8.25056C105.911 8.06422 107.423 8.06692 108.929 8.25056Z" fill="#E8394B"/>
<path d="M106.11 7.69912C105.783 7.6343 105.575 7.43176 105.51 7.10498C105.84 7.16709 106.045 7.37234 106.11 7.69912Z" fill="#E8394B"/>
<path d="M106.11 8.80127C106.045 9.12534 105.84 9.33059 105.51 9.39541C105.572 9.06863 105.78 8.86608 106.11 8.80127Z" fill="#E8394B"/>
<path d="M107.221 7.69912C107.286 7.37504 107.491 7.1698 107.821 7.10498C107.759 7.43176 107.551 7.6343 107.221 7.69912Z" fill="#E8394B"/>
<path d="M107.221 8.80127C107.548 8.86608 107.756 9.06863 107.821 9.39541C107.491 9.33329 107.286 9.12804 107.221 8.80127Z" fill="#E8394B"/>
<path d="M82.5428 5.104C82.7666 7.19968 82.7693 9.29806 82.5428 11.3964C82.3162 9.30076 82.319 7.20238 82.5428 5.104Z" fill="#E8394B"/>
<path d="M85.7222 8.25011C83.6043 8.47156 81.4836 8.47426 79.3629 8.25011C81.4809 8.02596 83.6016 8.02866 85.7222 8.25011Z" fill="#E8394B"/>
<path d="M81.7619 7.47779C81.3252 7.35896 81.0386 7.07809 80.9213 6.646C81.358 6.76212 81.6445 7.04839 81.7619 7.47779Z" fill="#E8394B"/>
<path d="M81.7619 9.02246C81.6418 9.45456 81.358 9.73813 80.9213 9.85425C81.0386 9.42215 81.3279 9.13859 81.7619 9.02246Z" fill="#E8394B"/>
<path d="M83.3234 7.47779C83.4435 7.04569 83.7273 6.76212 84.164 6.646C84.0466 7.07809 83.7573 7.36166 83.3234 7.47779Z" fill="#E8394B"/>
<path d="M83.3234 9.02246C83.7601 9.14129 84.0466 9.42215 84.164 9.85425C83.7273 9.73813 83.4407 9.45186 83.3234 9.02246Z" fill="#E8394B"/>
<path d="M69.6656 13.6544C69.9876 13.4707 70.3206 13.468 70.6426 13.6544C70.3206 13.8407 69.9876 13.838 69.6656 13.6544Z" fill="#E8394B"/>
<path d="M69.3682 13.9487C69.5538 14.2674 69.5566 14.5969 69.3682 14.9156C69.1799 14.5969 69.1827 14.2674 69.3682 13.9487Z" fill="#E8394B"/>
<path d="M69.3682 13.3599C69.1827 13.0412 69.1799 12.7117 69.3682 12.3931C69.5566 12.7117 69.5538 13.0412 69.3682 13.3599Z" fill="#E8394B"/>
<path d="M69.0706 13.6544C68.7486 13.838 68.4156 13.8407 68.0935 13.6544C68.4156 13.468 68.7486 13.4707 69.0706 13.6544Z" fill="#E8394B"/>
<path d="M2.23277 27.8788V61.6473C2.23277 64.2912 4.40803 66.4436 7.08002 66.4436H142.92C145.592 66.4436 147.768 64.2912 147.768 61.6473V27.8788C147.768 25.2349 145.592 23.0825 142.92 23.0825H125.753V23.7577H142.92C145.218 23.7577 147.085 25.6076 147.085 27.8788V61.6473C147.085 63.9213 145.216 65.7685 142.92 65.7685H7.08002C4.78195 65.7685 2.9151 63.9186 2.9151 61.6473V27.8788C2.9151 25.6049 4.78468 23.7577 7.08002 23.7577H24.2474V23.0825H7.08002C4.40803 23.0825 2.23277 25.2349 2.23277 27.8788Z" fill="#E8394B"/>
<path d="M143.542 20.949H125.753V21.6241H143.542C146.728 21.6241 149.318 24.187 149.318 27.3387V62.0416C149.318 65.1905 146.728 67.7534 143.542 67.7534H6.45483C3.27245 67.7534 0.682342 65.1905 0.682342 62.0416V27.336C0.682342 24.1843 3.27245 21.6214 6.45483 21.6214H24.2445V20.9463H6.45483C2.89581 20.9463 1.52588e-05 23.8116 1.52588e-05 27.336V62.0389C1.52588e-05 65.5605 2.89581 68.4258 6.45483 68.4258H143.542C147.101 68.4258 150 65.5605 150 62.0389V27.336C150 23.8143 147.104 20.9463 143.542 20.9463V20.949Z" fill="#E8394B"/>
</g>
<defs>
<clipPath id="clip0_931_147">
<rect width="150" height="84" fill="white"/>
</clipPath>
</defs>
</svg>
